M48
INCH,TZ
T1C0.0118
T2C0.0394
T3C0.0433
%
G90
G05
T1
X17059Y-16881
X17059Y-17881
X18059Y-16881
X18059Y-17881
X18551Y-11995
X18551Y-12995
X18551Y-13995
X18551Y-14995
X18559Y-6664
X18559Y-7664
X18559Y-8664
X18559Y-9664
X19059Y-16881
X19059Y-17881
X19280Y-22195
X19280Y-22913
X19551Y-11995
X19551Y-12995
X19551Y-13995
X19551Y-14995
X19559Y-6664
X19559Y-7664
X19559Y-8664
X19559Y-9664
X19698Y-37105
X19766Y-31261
X20059Y-16881
X20059Y-17881
X20157Y-37105
X20225Y-31261
X20541Y-22615
X20551Y-11995
X20551Y-12995
X20551Y-13995
X20551Y-14995
X20559Y-6664
X20559Y-7664
X20559Y-8664
X20559Y-9664
X20616Y-37105
X20684Y-31261
X21075Y-37105
X21144Y-31261
X21533Y-22601
X21551Y-11995
X21551Y-12995
X21551Y-13995
X21551Y-14995
X21559Y-6664
X21559Y-7664
X21559Y-8664
X21559Y-9664
X21811Y-26330
X22488Y-34735
X22545Y-22620
X23524Y-26330
X23586Y-22620
X24389Y-34735
X24854Y-31625
X24945Y-30956
X24984Y-28637
X25240Y-26015
X25433Y-31322
X25614Y-30286
X25969Y-30960
X26067Y-28334
X26185Y-22594
X26279Y-34735
X26417Y-25680
X26461Y-30782
X26612Y-29029
X26618Y-21944
X26646Y-31625
X26697Y-29696
X26898Y-29369
X26904Y-28633
X26949Y-24822
X27150Y-26062
X27189Y-22802
X27244Y-16373
X27362Y-29613
X27831Y-29456
X27835Y-29101
X27882Y-24771
X28154Y-28625
X28178Y-34735
X28469Y-28247
X28783Y-27397
X28797Y-23515
X28797Y-24015
X28953Y-6767
X28953Y-7767
X28953Y-8767
X28953Y-9767
X28953Y-11956
X28953Y-12956
X28953Y-13956
X28953Y-14956
X29087Y-28145
X29091Y-26062
X29297Y-23515
X29297Y-24015
X29421Y-28609
X29421Y-29566
X29797Y-23515
X29797Y-24015
X29953Y-6767
X29953Y-7767
X29953Y-8767
X29953Y-9767
X29953Y-11956
X29953Y-12956
X29953Y-13956
X29953Y-14956
X30077Y-34763
X30297Y-23515
X30297Y-24015
X30797Y-23515
X30797Y-24015
X30953Y-6767
X30953Y-7767
X30953Y-8767
X30953Y-9767
X30953Y-11956
X30953Y-12956
X30953Y-13956
X30953Y-14956
X31297Y-23515
X31297Y-24015
X31797Y-23515
X31797Y-24015
X31953Y-6767
X31953Y-7767
X31953Y-8767
X31953Y-9767
X31953Y-11956
X31953Y-12956
X31953Y-13956
X31953Y-14956
X31993Y-34735
X33869Y-34735
T2
X17354Y-22133
X17354Y-23133
X23223Y-37716
X24223Y-37716
X25106Y-20334
X25106Y-21334
X25223Y-37716
X26106Y-20334
X26106Y-21334
X26223Y-37716
X27106Y-21334
X27106Y-20334
X27223Y-37716
X28223Y-37716
X29223Y-37716
X30223Y-37716
X31223Y-37716
X32866Y-26393
X32866Y-27393
X32866Y-28393
X32866Y-29393
T3
X24016Y-12517
X24016Y-13517
X24016Y-14517
X24026Y-7084
X24026Y-8084
X24026Y-9084
X26591Y-7172
X26591Y-8172
X26591Y-9172
X26610Y-12586
X26610Y-13586
X26610Y-14586
M30
