G04 #@! TF.GenerationSoftware,KiCad,Pcbnew,8.0.1*
G04 #@! TF.CreationDate,2024-11-29T15:47:05+04:00*
G04 #@! TF.ProjectId,BQ76925_ATMEGA328P_6S_20A_BMS,42513736-3932-4355-9f41-544d45474133,v1.0*
G04 #@! TF.SameCoordinates,Original*
G04 #@! TF.FileFunction,Soldermask,Top*
G04 #@! TF.FilePolarity,Negative*
%FSLAX46Y46*%
G04 Gerber Fmt 4.6, Leading zero omitted, Abs format (unit mm)*
G04 Created by KiCad (PCBNEW 8.0.1) date 2024-11-29 15:47:05*
%MOMM*%
%LPD*%
G01*
G04 APERTURE LIST*
G04 Aperture macros list*
%AMRoundRect*
0 Rectangle with rounded corners*
0 $1 Rounding radius*
0 $2 $3 $4 $5 $6 $7 $8 $9 X,Y pos of 4 corners*
0 Add a 4 corners polygon primitive as box body*
4,1,4,$2,$3,$4,$5,$6,$7,$8,$9,$2,$3,0*
0 Add four circle primitives for the rounded corners*
1,1,$1+$1,$2,$3*
1,1,$1+$1,$4,$5*
1,1,$1+$1,$6,$7*
1,1,$1+$1,$8,$9*
0 Add four rect primitives between the rounded corners*
20,1,$1+$1,$2,$3,$4,$5,0*
20,1,$1+$1,$4,$5,$6,$7,0*
20,1,$1+$1,$6,$7,$8,$9,0*
20,1,$1+$1,$8,$9,$2,$3,0*%
G04 Aperture macros list end*
%ADD10RoundRect,0.237500X-0.237500X0.250000X-0.237500X-0.250000X0.237500X-0.250000X0.237500X0.250000X0*%
%ADD11RoundRect,0.250000X0.625000X-0.400000X0.625000X0.400000X-0.625000X0.400000X-0.625000X-0.400000X0*%
%ADD12RoundRect,0.250000X-0.475000X0.337500X-0.475000X-0.337500X0.475000X-0.337500X0.475000X0.337500X0*%
%ADD13RoundRect,0.237500X-0.250000X-0.237500X0.250000X-0.237500X0.250000X0.237500X-0.250000X0.237500X0*%
%ADD14RoundRect,0.250000X-1.500000X-0.550000X1.500000X-0.550000X1.500000X0.550000X-1.500000X0.550000X0*%
%ADD15RoundRect,0.250000X-1.425000X0.362500X-1.425000X-0.362500X1.425000X-0.362500X1.425000X0.362500X0*%
%ADD16RoundRect,0.237500X-0.300000X-0.237500X0.300000X-0.237500X0.300000X0.237500X-0.300000X0.237500X0*%
%ADD17O,3.500000X3.500000*%
%ADD18R,2.000000X1.905000*%
%ADD19O,2.000000X1.905000*%
%ADD20RoundRect,0.250000X-0.550000X1.500000X-0.550000X-1.500000X0.550000X-1.500000X0.550000X1.500000X0*%
%ADD21RoundRect,0.250000X-0.350000X-0.450000X0.350000X-0.450000X0.350000X0.450000X-0.350000X0.450000X0*%
%ADD22R,10.000000X5.000000*%
%ADD23R,1.700000X1.700000*%
%ADD24O,1.700000X1.700000*%
%ADD25R,2.200000X1.500000*%
%ADD26RoundRect,0.250000X-0.450000X0.350000X-0.450000X-0.350000X0.450000X-0.350000X0.450000X0.350000X0*%
%ADD27RoundRect,0.225000X-0.375000X0.225000X-0.375000X-0.225000X0.375000X-0.225000X0.375000X0.225000X0*%
%ADD28RoundRect,0.237500X0.250000X0.237500X-0.250000X0.237500X-0.250000X-0.237500X0.250000X-0.237500X0*%
%ADD29RoundRect,0.237500X0.237500X-0.300000X0.237500X0.300000X-0.237500X0.300000X-0.237500X-0.300000X0*%
%ADD30RoundRect,0.237500X0.237500X-0.250000X0.237500X0.250000X-0.237500X0.250000X-0.237500X-0.250000X0*%
%ADD31RoundRect,0.225000X0.375000X-0.225000X0.375000X0.225000X-0.375000X0.225000X-0.375000X-0.225000X0*%
%ADD32RoundRect,0.150000X-0.512500X-0.150000X0.512500X-0.150000X0.512500X0.150000X-0.512500X0.150000X0*%
%ADD33RoundRect,0.250000X0.337500X0.475000X-0.337500X0.475000X-0.337500X-0.475000X0.337500X-0.475000X0*%
%ADD34R,3.200000X0.600000*%
%ADD35R,1.600000X0.550000*%
%ADD36R,0.550000X1.600000*%
%ADD37RoundRect,0.250000X0.475000X-0.337500X0.475000X0.337500X-0.475000X0.337500X-0.475000X-0.337500X0*%
%ADD38RoundRect,0.250000X-1.500000X-0.650000X1.500000X-0.650000X1.500000X0.650000X-1.500000X0.650000X0*%
%ADD39RoundRect,0.250000X-0.337500X-0.475000X0.337500X-0.475000X0.337500X0.475000X-0.337500X0.475000X0*%
%ADD40RoundRect,0.250000X-0.625000X0.400000X-0.625000X-0.400000X0.625000X-0.400000X0.625000X0.400000X0*%
%ADD41RoundRect,0.375000X-0.625000X-0.375000X0.625000X-0.375000X0.625000X0.375000X-0.625000X0.375000X0*%
%ADD42RoundRect,0.500000X-0.500000X-1.400000X0.500000X-1.400000X0.500000X1.400000X-0.500000X1.400000X0*%
%ADD43RoundRect,0.100000X0.100000X-0.637500X0.100000X0.637500X-0.100000X0.637500X-0.100000X-0.637500X0*%
%ADD44RoundRect,0.250000X-1.000000X-0.900000X1.000000X-0.900000X1.000000X0.900000X-1.000000X0.900000X0*%
%ADD45RoundRect,0.250000X0.450000X-0.350000X0.450000X0.350000X-0.450000X0.350000X-0.450000X-0.350000X0*%
%ADD46RoundRect,0.250000X0.650000X-0.412500X0.650000X0.412500X-0.650000X0.412500X-0.650000X-0.412500X0*%
%ADD47RoundRect,0.150000X-0.587500X-0.150000X0.587500X-0.150000X0.587500X0.150000X-0.587500X0.150000X0*%
%ADD48RoundRect,0.237500X-0.237500X0.300000X-0.237500X-0.300000X0.237500X-0.300000X0.237500X0.300000X0*%
G04 APERTURE END LIST*
D10*
X48970000Y-56375000D03*
X48970000Y-58200000D03*
D11*
X59514809Y-90297502D03*
X59514809Y-87197500D03*
D12*
X57103271Y-87140001D03*
X57103271Y-89215001D03*
D13*
X78457500Y-73197500D03*
X80282500Y-73197500D03*
D11*
X69160961Y-90297502D03*
X69160961Y-87197500D03*
D14*
X52330000Y-77027500D03*
X57730000Y-77027500D03*
D15*
X75880000Y-53795000D03*
X75880000Y-59720000D03*
D11*
X83630189Y-90297502D03*
X83630189Y-87197500D03*
D16*
X42292499Y-74177500D03*
X44017501Y-74177500D03*
D12*
X76395575Y-87140001D03*
X76395575Y-89215001D03*
X71572499Y-87140001D03*
X71572499Y-89215001D03*
X66749423Y-87140001D03*
X66749423Y-89215001D03*
D17*
X44365000Y-20532500D03*
D18*
X61025000Y-23072500D03*
D19*
X61025000Y-20532500D03*
X61025000Y-17992500D03*
D20*
X44780000Y-64352500D03*
X44780000Y-69752500D03*
D21*
X42230000Y-77352500D03*
X44230000Y-77352500D03*
D22*
X81074998Y-49302500D03*
D23*
X63770000Y-54187500D03*
D24*
X63770000Y-51647500D03*
X66310000Y-54187500D03*
X66310000Y-51647500D03*
X68849999Y-54187500D03*
X68850000Y-51647500D03*
D25*
X54530000Y-70227500D03*
X54530000Y-63827500D03*
D10*
X83115002Y-54242500D03*
X83115002Y-56067500D03*
D11*
X78807113Y-90297502D03*
X78807113Y-87197500D03*
D23*
X44080000Y-56217500D03*
D24*
X44080000Y-58757500D03*
D11*
X54691733Y-90297502D03*
X54691733Y-87197500D03*
D26*
X56650000Y-53857500D03*
X56650000Y-55857500D03*
D27*
X49477500Y-83272500D03*
X49477500Y-86572500D03*
D28*
X63122500Y-80307500D03*
X61297500Y-80307500D03*
D10*
X67480000Y-44065000D03*
X67480000Y-45890000D03*
D29*
X55555000Y-60525001D03*
X55555000Y-58799999D03*
D12*
X65490000Y-67540000D03*
X65490000Y-69615000D03*
D17*
X84250000Y-34507500D03*
D18*
X67590000Y-31967500D03*
D19*
X67590000Y-34507500D03*
X67590000Y-37047500D03*
D12*
X81218651Y-87140001D03*
X81218651Y-89215001D03*
D30*
X63120000Y-36732500D03*
X63120000Y-34907500D03*
D28*
X69722500Y-48767500D03*
X67897500Y-48767500D03*
D31*
X64995000Y-23057500D03*
X64995000Y-19757500D03*
D32*
X46680000Y-75502502D03*
X46680000Y-76452501D03*
X46680000Y-77402500D03*
X48955000Y-77402500D03*
X48955000Y-76452501D03*
X48955000Y-75502502D03*
D33*
X65507500Y-74717500D03*
X63432500Y-74717500D03*
D34*
X79420000Y-66637500D03*
X79420000Y-64237500D03*
X79420000Y-65437500D03*
D11*
X73984037Y-90297502D03*
X73984037Y-87197500D03*
D31*
X65070000Y-36832500D03*
X65070000Y-33532500D03*
D35*
X76160000Y-71947500D03*
X76160000Y-71147500D03*
X76160000Y-70347500D03*
X76160000Y-69547500D03*
X76160000Y-68747500D03*
X76160000Y-67947500D03*
X76160000Y-67147500D03*
X76160000Y-66347500D03*
D36*
X74710000Y-64897500D03*
X73910000Y-64897500D03*
X73110000Y-64897500D03*
X72310000Y-64897500D03*
X71510000Y-64897500D03*
X70710000Y-64897500D03*
X69910000Y-64897500D03*
X69110000Y-64897500D03*
D35*
X67660000Y-66347500D03*
X67660000Y-67147500D03*
X67660000Y-67947500D03*
X67660000Y-68747500D03*
X67660000Y-69547500D03*
X67660000Y-70347500D03*
X67660000Y-71147500D03*
X67660000Y-71947500D03*
D36*
X69110000Y-73397500D03*
X69910000Y-73397500D03*
X70710000Y-73397500D03*
X71510000Y-73397500D03*
X72310000Y-73397500D03*
X73110000Y-73397500D03*
X73910000Y-73397500D03*
X74710000Y-73397500D03*
D37*
X78210000Y-83455000D03*
X78210000Y-81380000D03*
D17*
X84200000Y-20757500D03*
D18*
X67540000Y-18217500D03*
D19*
X67540000Y-20757500D03*
X67540000Y-23297500D03*
D23*
X58985961Y-95797501D03*
D24*
X61525961Y-95797501D03*
X64065960Y-95797501D03*
X66605961Y-95797501D03*
X69145961Y-95797501D03*
X71685961Y-95797501D03*
X74225961Y-95797501D03*
X76765962Y-95797501D03*
X79305961Y-95797501D03*
D38*
X46515000Y-96172500D03*
X51515000Y-96172500D03*
D28*
X44192500Y-80502500D03*
X42367500Y-80502500D03*
D30*
X83115002Y-59547499D03*
X83115002Y-57722499D03*
D29*
X58555000Y-60505001D03*
X58555000Y-58779999D03*
D28*
X63082500Y-77437500D03*
X61257500Y-77437500D03*
D12*
X61926347Y-87140001D03*
X61926347Y-89215001D03*
D20*
X44560000Y-83307500D03*
X44560000Y-88707500D03*
D10*
X60990000Y-65590000D03*
X60990000Y-67415000D03*
D12*
X60380000Y-43940000D03*
X60380000Y-46015000D03*
D17*
X44340000Y-34332500D03*
D18*
X61000000Y-36872500D03*
D19*
X61000000Y-34332500D03*
X61000000Y-31792500D03*
D12*
X86041733Y-87140001D03*
X86041733Y-89215001D03*
D39*
X46842500Y-79427500D03*
X48917500Y-79427500D03*
D30*
X63095000Y-23070000D03*
X63095000Y-21245000D03*
D10*
X59260000Y-40375000D03*
X59260000Y-42200000D03*
D23*
X83480000Y-67037500D03*
D24*
X83480000Y-69577500D03*
X83480000Y-72117500D03*
X83480000Y-74657500D03*
D11*
X52102500Y-86372501D03*
X52102500Y-83272499D03*
D39*
X46842500Y-73202500D03*
X48917500Y-73202500D03*
D40*
X64020000Y-38757499D03*
X64020000Y-41857501D03*
D12*
X74690000Y-81370000D03*
X74690000Y-83445000D03*
D41*
X60710000Y-57687500D03*
X60710001Y-59987500D03*
D42*
X67009999Y-59987500D03*
D41*
X60710000Y-62287500D03*
D43*
X65910961Y-82572501D03*
X66560961Y-82572501D03*
X67210961Y-82572501D03*
X67860961Y-82572501D03*
X68510961Y-82572501D03*
X69160961Y-82572501D03*
X69810961Y-82572501D03*
X70460961Y-82572501D03*
X71110961Y-82572501D03*
X71760961Y-82572501D03*
X71760961Y-76847501D03*
X71110961Y-76847501D03*
X70460961Y-76847501D03*
X69810961Y-76847501D03*
X69160961Y-76847501D03*
X68510961Y-76847501D03*
X67860961Y-76847501D03*
X67210961Y-76847501D03*
X66560961Y-76847501D03*
X65910961Y-76847501D03*
D40*
X63920000Y-24967499D03*
X63920000Y-28067501D03*
D15*
X80105002Y-53820000D03*
X80105002Y-59745000D03*
D37*
X47030000Y-58335000D03*
X47030000Y-56260000D03*
D44*
X47514999Y-91922500D03*
X51815001Y-91922500D03*
D10*
X59820000Y-53515000D03*
X59820000Y-55340000D03*
X69545001Y-44075001D03*
X69545001Y-45900001D03*
D39*
X78262500Y-75187500D03*
X80337500Y-75187500D03*
D33*
X80570000Y-70087500D03*
X78495000Y-70087500D03*
D37*
X52325000Y-60810000D03*
X52325000Y-58735000D03*
D45*
X60980000Y-71527500D03*
X60980000Y-69527500D03*
D22*
X46745000Y-44082500D03*
D11*
X64337885Y-90297502D03*
X64337885Y-87197500D03*
D39*
X73482500Y-76937500D03*
X75557500Y-76937500D03*
D46*
X81700000Y-83370000D03*
X81700000Y-80245000D03*
D47*
X63052500Y-43917500D03*
X64927501Y-44867500D03*
X63052500Y-45817500D03*
D48*
X63420000Y-67314999D03*
X63420000Y-69040001D03*
M02*
