G04 #@! TF.GenerationSoftware,KiCad,Pcbnew,8.0.1*
G04 #@! TF.CreationDate,2024-11-29T15:47:05+04:00*
G04 #@! TF.ProjectId,BQ76925_ATMEGA328P_6S_20A_BMS,42513736-3932-4355-9f41-544d45474133,v1.0*
G04 #@! TF.SameCoordinates,Original*
G04 #@! TF.FileFunction,Copper,L2,Bot*
G04 #@! TF.FilePolarity,Positive*
%FSLAX46Y46*%
G04 Gerber Fmt 4.6, Leading zero omitted, Abs format (unit mm)*
G04 Created by KiCad (PCBNEW 8.0.1) date 2024-11-29 15:47:05*
%MOMM*%
%LPD*%
G01*
G04 APERTURE LIST*
G04 #@! TA.AperFunction,ComponentPad*
%ADD10R,2.000000X1.905000*%
G04 #@! TD*
G04 #@! TA.AperFunction,ComponentPad*
%ADD11O,2.000000X1.905000*%
G04 #@! TD*
G04 #@! TA.AperFunction,ComponentPad*
%ADD12R,1.700000X1.700000*%
G04 #@! TD*
G04 #@! TA.AperFunction,ComponentPad*
%ADD13O,1.700000X1.700000*%
G04 #@! TD*
G04 #@! TA.AperFunction,ViaPad*
%ADD14C,0.600000*%
G04 #@! TD*
G04 #@! TA.AperFunction,Conductor*
%ADD15C,1.000000*%
G04 #@! TD*
G04 #@! TA.AperFunction,Conductor*
%ADD16C,0.200000*%
G04 #@! TD*
G04 #@! TA.AperFunction,Conductor*
%ADD17C,0.400000*%
G04 #@! TD*
G04 #@! TA.AperFunction,Conductor*
%ADD18C,0.300000*%
G04 #@! TD*
G04 APERTURE END LIST*
D10*
X61025000Y-23072500D03*
D11*
X61025000Y-20532500D03*
X61025000Y-17992500D03*
D12*
X63770000Y-54187500D03*
D13*
X63770000Y-51647500D03*
X66310000Y-54187500D03*
X66310000Y-51647500D03*
X68849999Y-54187500D03*
X68850000Y-51647500D03*
D12*
X44080000Y-56217500D03*
D13*
X44080000Y-58757500D03*
D10*
X67590000Y-31967500D03*
D11*
X67590000Y-34507500D03*
X67590000Y-37047500D03*
D10*
X67540000Y-18217500D03*
D11*
X67540000Y-20757500D03*
X67540000Y-23297500D03*
D12*
X58985961Y-95797501D03*
D13*
X61525961Y-95797501D03*
X64065960Y-95797501D03*
X66605961Y-95797501D03*
X69145961Y-95797501D03*
X71685961Y-95797501D03*
X74225961Y-95797501D03*
X76765962Y-95797501D03*
X79305961Y-95797501D03*
D10*
X61000000Y-36872500D03*
D11*
X61000000Y-34332500D03*
X61000000Y-31792500D03*
D12*
X83480000Y-67037500D03*
D13*
X83480000Y-69577500D03*
X83480000Y-72117500D03*
X83480000Y-74657500D03*
D14*
X70690000Y-74817500D03*
X67680000Y-80327500D03*
X64600000Y-79557500D03*
X54695023Y-57406345D03*
X66749423Y-88227501D03*
X86026122Y-88227501D03*
X67610000Y-55737500D03*
X59750000Y-66877500D03*
X68960002Y-66197502D03*
X55400000Y-66877500D03*
X59909499Y-57455307D03*
X68320000Y-74597500D03*
X81263223Y-88227501D03*
X67100000Y-65227500D03*
X63460000Y-72737500D03*
X61948390Y-88227501D03*
X57265540Y-57455307D03*
X52173469Y-57443066D03*
X71572499Y-88227501D03*
X73890000Y-66197502D03*
X69200000Y-41587500D03*
X76395575Y-88296926D03*
X68450000Y-63047500D03*
X65060000Y-76927500D03*
X66510000Y-57387500D03*
X57120673Y-88227501D03*
X69500000Y-75217500D03*
X64109150Y-66077500D03*
X70820000Y-62917500D03*
X66210000Y-71967500D03*
X48970000Y-56375000D03*
X50031668Y-94247500D03*
X51198334Y-94247500D03*
X52365000Y-94247500D03*
X53531668Y-94247500D03*
X52538332Y-79402500D03*
X53705000Y-79402500D03*
X50205000Y-79402500D03*
X51371666Y-79402500D03*
X72310000Y-71747500D03*
X73880000Y-71487500D03*
X73110000Y-69587500D03*
X69060000Y-57918162D03*
X81160000Y-35447500D03*
X76080000Y-19727500D03*
X73540000Y-17187500D03*
X73540000Y-24807500D03*
X79495000Y-59727500D03*
X81160000Y-19727500D03*
X81160000Y-24807500D03*
X76955000Y-60997500D03*
X78225000Y-60997500D03*
X76080000Y-35447500D03*
X78620000Y-37987500D03*
X78620000Y-30367500D03*
X73540000Y-19727500D03*
X74415000Y-60997500D03*
X73540000Y-35447500D03*
X76080000Y-30367500D03*
X76080000Y-22267500D03*
X81160000Y-17187500D03*
X76080000Y-32907500D03*
X73540000Y-30367500D03*
X78225000Y-59727500D03*
X81160000Y-37987500D03*
X80765000Y-60997500D03*
X78620000Y-17187500D03*
X73540000Y-22267500D03*
X81160000Y-32907500D03*
X81160000Y-30367500D03*
X73145000Y-60997500D03*
X78620000Y-19727500D03*
X81160000Y-22267500D03*
X78620000Y-22267500D03*
X73540000Y-32907500D03*
X75685000Y-60997500D03*
X78620000Y-32907500D03*
X79495000Y-60997500D03*
X74415000Y-59727500D03*
X75685000Y-59727500D03*
X76955000Y-59727500D03*
X73540000Y-37987500D03*
X76080000Y-24807500D03*
X76080000Y-37987500D03*
X78620000Y-35447500D03*
X80765000Y-59727500D03*
X73145000Y-59727500D03*
X78620000Y-24807500D03*
X76080000Y-17187500D03*
X70700000Y-73917500D03*
X67595000Y-73732500D03*
X67210000Y-78187500D03*
X63130000Y-80327500D03*
X63360000Y-78627500D03*
X71510000Y-72707500D03*
X65960000Y-78637500D03*
X68334998Y-72727500D03*
X74730000Y-72667500D03*
X74730000Y-75097500D03*
X67810961Y-75427500D03*
X48970000Y-58200000D03*
X52200000Y-33007500D03*
X47120000Y-35547500D03*
X49660000Y-38087500D03*
X54740000Y-35547500D03*
X50950000Y-42877500D03*
X52200000Y-30467500D03*
X50950000Y-45417500D03*
X49660000Y-33007500D03*
X54740000Y-33007500D03*
X48410000Y-45417500D03*
X52220000Y-24547500D03*
X54760000Y-16927500D03*
X47140000Y-16927500D03*
X45870000Y-45417500D03*
X54760000Y-19467500D03*
X47140000Y-19467500D03*
X43330000Y-42877500D03*
X45870000Y-42877500D03*
X48410000Y-42877500D03*
X47120000Y-38087500D03*
X52200000Y-38087500D03*
X43330000Y-45417500D03*
X52200000Y-35547500D03*
X54740000Y-30467500D03*
X49680000Y-22007500D03*
X52220000Y-16927500D03*
X49680000Y-16927500D03*
X47120000Y-30467500D03*
X47140000Y-22007500D03*
X52220000Y-22007500D03*
X54760000Y-24547500D03*
X49660000Y-30467500D03*
X47140000Y-24547500D03*
X47120000Y-33007500D03*
X49680000Y-19467500D03*
X49660000Y-35547500D03*
X54760000Y-22007500D03*
X52220000Y-19467500D03*
X49680000Y-24547500D03*
X54740000Y-38087500D03*
D15*
X57270000Y-81317500D02*
X57270000Y-82587500D01*
X59800000Y-62027500D02*
X59800000Y-63297500D01*
X43360000Y-61062500D02*
X43360000Y-62332500D01*
X59810000Y-81317500D02*
X59810000Y-82587500D01*
X57270000Y-80047500D02*
X57270000Y-81317500D01*
D16*
X63430000Y-72777500D02*
X63460000Y-72807500D01*
D15*
X59800000Y-60757500D02*
X59800000Y-62027500D01*
D16*
X63390000Y-72737500D02*
X62000000Y-71347500D01*
D15*
X45840000Y-80047500D02*
X45840000Y-81317500D01*
X43300000Y-81317500D02*
X43300000Y-82587500D01*
X45860000Y-61112500D02*
X45860000Y-62382500D01*
X59810000Y-80047500D02*
X59810000Y-81317500D01*
D16*
X52010000Y-61447500D02*
X53280000Y-62717500D01*
X63460000Y-72807500D02*
X63460000Y-72737500D01*
D15*
X43360000Y-62332500D02*
X43360000Y-63602500D01*
X43300000Y-80047500D02*
X43300000Y-81317500D01*
D16*
X63460000Y-72737500D02*
X63390000Y-72737500D01*
D15*
X45840000Y-81317500D02*
X45840000Y-82587500D01*
X45860000Y-62382500D02*
X45860000Y-63652500D01*
D17*
X66200000Y-71957500D02*
X66210000Y-71967500D01*
X60660000Y-56397500D02*
X66200000Y-61937500D01*
X48970000Y-56375000D02*
X48992500Y-56397500D01*
X66200000Y-61937500D02*
X66200000Y-71957500D01*
X48992500Y-56397500D02*
X60660000Y-56397500D01*
D16*
X68849999Y-54187500D02*
X70120000Y-55457501D01*
X70120000Y-55457501D02*
X70120000Y-69557500D01*
X70120000Y-69557500D02*
X72310000Y-71747500D01*
X81900000Y-72117500D02*
X83480000Y-72117500D01*
X73890000Y-71497500D02*
X81280000Y-71497500D01*
X81280000Y-71497500D02*
X81900000Y-72117500D01*
X73880000Y-71487500D02*
X73890000Y-71497500D01*
X73740000Y-69577500D02*
X83480000Y-69577500D01*
X73110000Y-69587500D02*
X73730000Y-69587500D01*
X73730000Y-69587500D02*
X73740000Y-69577500D01*
D18*
X64460000Y-56557500D02*
X63770000Y-55867500D01*
X69040662Y-57918162D02*
X67680000Y-56557500D01*
X69060000Y-57918162D02*
X69040662Y-57918162D01*
X63770000Y-55867500D02*
X63770000Y-54187500D01*
X67680000Y-56557500D02*
X64460000Y-56557500D01*
D16*
X66630000Y-80327500D02*
X67230000Y-79727500D01*
X63130000Y-80327500D02*
X66630000Y-80327500D01*
X67595000Y-73732500D02*
X67780000Y-73917500D01*
X67780000Y-73917500D02*
X70700000Y-73917500D01*
X67230000Y-79727500D02*
X67230000Y-78207500D01*
X70700000Y-73917500D02*
X70690000Y-73907500D01*
X67230000Y-78207500D02*
X67210000Y-78187500D01*
X68334998Y-72727500D02*
X71490000Y-72727500D01*
X63360000Y-78627500D02*
X65950000Y-78627500D01*
X71490000Y-72727500D02*
X71510000Y-72707500D01*
X65950000Y-78627500D02*
X65960000Y-78637500D01*
X74730000Y-72667500D02*
X74730000Y-75097500D01*
D17*
X64890000Y-62527500D02*
X60570000Y-58207500D01*
X48977500Y-58207500D02*
X48970000Y-58200000D01*
X64890000Y-72667500D02*
X64890000Y-62527500D01*
X67810961Y-75427500D02*
X67650000Y-75427500D01*
X67650000Y-75427500D02*
X64890000Y-72667500D01*
X60570000Y-58207500D02*
X48977500Y-58207500D01*
G04 #@! TA.AperFunction,Conductor*
G36*
X47917539Y-81517185D02*
G01*
X47963294Y-81569989D01*
X47974500Y-81621500D01*
X47974500Y-89686638D01*
X47963970Y-89722500D01*
X47790000Y-89722500D01*
X47790000Y-81497500D01*
X47850500Y-81497500D01*
X47917539Y-81517185D01*
G37*
G04 #@! TD.AperFunction*
G04 #@! TA.AperFunction,Conductor*
G36*
X87222631Y-89598543D02*
G01*
X87202923Y-89665576D01*
X87150103Y-89711312D01*
X87098631Y-89722500D01*
X54584500Y-89722500D01*
X54517461Y-89702815D01*
X54471706Y-89650011D01*
X54460500Y-89598500D01*
X54460500Y-81621500D01*
X54480185Y-81554461D01*
X54532989Y-81508706D01*
X54584500Y-81497500D01*
X62374993Y-81497500D01*
X87225430Y-81497500D01*
X87222631Y-89598543D01*
G37*
G04 #@! TD.AperFunction*
G04 #@! TA.AperFunction,Conductor*
G36*
X64453181Y-62657073D02*
G01*
X64486666Y-62718396D01*
X64489500Y-62744754D01*
X64489500Y-72720226D01*
X64516793Y-72822089D01*
X64532883Y-72849956D01*
X64569520Y-72913413D01*
X67329519Y-75673412D01*
X67329520Y-75673413D01*
X67404087Y-75747980D01*
X67430683Y-75763335D01*
X67462393Y-75789517D01*
X67470076Y-75798383D01*
X67479833Y-75809643D01*
X67600908Y-75887453D01*
X67600911Y-75887454D01*
X67600910Y-75887454D01*
X67738997Y-75927999D01*
X67738999Y-75928000D01*
X67739000Y-75928000D01*
X67882923Y-75928000D01*
X67882923Y-75927999D01*
X68021014Y-75887453D01*
X68142089Y-75809643D01*
X68236338Y-75700873D01*
X68296126Y-75569957D01*
X68316608Y-75427500D01*
X68296126Y-75285043D01*
X68236338Y-75154127D01*
X68187271Y-75097500D01*
X74224353Y-75097500D01*
X74244834Y-75239956D01*
X74265425Y-75285043D01*
X74304623Y-75370873D01*
X74398872Y-75479643D01*
X74519947Y-75557453D01*
X74519950Y-75557454D01*
X74519949Y-75557454D01*
X74658036Y-75597999D01*
X74658038Y-75598000D01*
X74658039Y-75598000D01*
X74801962Y-75598000D01*
X74801962Y-75597999D01*
X74940053Y-75557453D01*
X75061128Y-75479643D01*
X75155377Y-75370873D01*
X75215165Y-75239957D01*
X75235647Y-75097500D01*
X75215165Y-74955043D01*
X75155377Y-74824127D01*
X75155375Y-74824125D01*
X75155374Y-74824122D01*
X75060787Y-74714962D01*
X75031762Y-74651406D01*
X75030500Y-74633760D01*
X75030500Y-73131238D01*
X75050185Y-73064199D01*
X75060787Y-73050035D01*
X75061124Y-73049644D01*
X75061128Y-73049643D01*
X75155377Y-72940873D01*
X75215165Y-72809957D01*
X75235647Y-72667500D01*
X75215165Y-72525043D01*
X75155377Y-72394127D01*
X75061128Y-72285357D01*
X74940053Y-72207547D01*
X74940051Y-72207546D01*
X74940049Y-72207545D01*
X74940050Y-72207545D01*
X74801963Y-72167000D01*
X74801961Y-72167000D01*
X74658039Y-72167000D01*
X74658036Y-72167000D01*
X74519949Y-72207545D01*
X74398873Y-72285356D01*
X74304623Y-72394126D01*
X74304622Y-72394128D01*
X74244834Y-72525043D01*
X74224353Y-72667500D01*
X74244834Y-72809956D01*
X74272236Y-72869956D01*
X74304623Y-72940873D01*
X74398872Y-73049643D01*
X74398875Y-73049644D01*
X74399213Y-73050035D01*
X74428238Y-73113591D01*
X74429500Y-73131238D01*
X74429500Y-74633760D01*
X74409815Y-74700799D01*
X74399213Y-74714962D01*
X74304625Y-74824122D01*
X74304622Y-74824128D01*
X74244834Y-74955043D01*
X74224353Y-75097500D01*
X68187271Y-75097500D01*
X68142089Y-75045357D01*
X68021014Y-74967547D01*
X68021012Y-74967546D01*
X68021010Y-74967545D01*
X68021011Y-74967545D01*
X67882924Y-74927000D01*
X67882922Y-74927000D01*
X67767255Y-74927000D01*
X67700216Y-74907315D01*
X67679574Y-74890681D01*
X66521393Y-73732500D01*
X67089353Y-73732500D01*
X67109834Y-73874956D01*
X67129264Y-73917500D01*
X67169623Y-74005873D01*
X67263872Y-74114643D01*
X67384947Y-74192453D01*
X67384950Y-74192454D01*
X67384949Y-74192454D01*
X67523036Y-74232999D01*
X67523038Y-74233000D01*
X67523039Y-74233000D01*
X67666961Y-74233000D01*
X67700940Y-74223023D01*
X67735875Y-74218000D01*
X67740438Y-74218000D01*
X70241499Y-74218000D01*
X70308538Y-74237685D01*
X70335211Y-74260796D01*
X70368872Y-74299643D01*
X70489947Y-74377453D01*
X70489950Y-74377454D01*
X70489949Y-74377454D01*
X70628036Y-74417999D01*
X70628038Y-74418000D01*
X70628039Y-74418000D01*
X70771962Y-74418000D01*
X70771962Y-74417999D01*
X70910053Y-74377453D01*
X71031128Y-74299643D01*
X71125377Y-74190873D01*
X71185165Y-74059957D01*
X71205647Y-73917500D01*
X71185165Y-73775043D01*
X71125377Y-73644127D01*
X71031128Y-73535357D01*
X70910053Y-73457547D01*
X70910051Y-73457546D01*
X70910049Y-73457545D01*
X70910050Y-73457545D01*
X70771963Y-73417000D01*
X70771961Y-73417000D01*
X70628039Y-73417000D01*
X70628036Y-73417000D01*
X70489949Y-73457545D01*
X70368873Y-73535356D01*
X70335212Y-73574203D01*
X70276433Y-73611977D01*
X70241499Y-73617000D01*
X68172165Y-73617000D01*
X68105126Y-73597315D01*
X68059371Y-73544511D01*
X68020379Y-73459130D01*
X68020377Y-73459128D01*
X68020377Y-73459127D01*
X67926128Y-73350357D01*
X67926125Y-73350355D01*
X67922512Y-73346185D01*
X67909536Y-73317773D01*
X67846733Y-73299333D01*
X67805050Y-73272545D01*
X67666963Y-73232000D01*
X67666961Y-73232000D01*
X67523039Y-73232000D01*
X67523036Y-73232000D01*
X67384949Y-73272545D01*
X67263873Y-73350356D01*
X67169623Y-73459126D01*
X67169622Y-73459128D01*
X67109834Y-73590043D01*
X67089353Y-73732500D01*
X66521393Y-73732500D01*
X65516393Y-72727500D01*
X67829351Y-72727500D01*
X67849832Y-72869956D01*
X67900486Y-72980871D01*
X67909621Y-73000873D01*
X68003870Y-73109643D01*
X68003871Y-73109644D01*
X68007485Y-73113814D01*
X68020460Y-73142225D01*
X68083264Y-73160667D01*
X68124942Y-73187452D01*
X68124947Y-73187454D01*
X68263034Y-73227999D01*
X68263036Y-73228000D01*
X68263037Y-73228000D01*
X68406960Y-73228000D01*
X68406960Y-73227999D01*
X68545051Y-73187453D01*
X68666126Y-73109643D01*
X68699786Y-73070796D01*
X68758565Y-73033023D01*
X68793499Y-73028000D01*
X71068829Y-73028000D01*
X71135868Y-73047685D01*
X71162540Y-73070795D01*
X71178872Y-73089643D01*
X71299947Y-73167453D01*
X71299950Y-73167454D01*
X71299949Y-73167454D01*
X71438036Y-73207999D01*
X71438038Y-73208000D01*
X71438039Y-73208000D01*
X71581962Y-73208000D01*
X71581962Y-73207999D01*
X71720053Y-73167453D01*
X71841128Y-73089643D01*
X71935377Y-72980873D01*
X71995165Y-72849957D01*
X72015647Y-72707500D01*
X71995165Y-72565043D01*
X71935377Y-72434127D01*
X71850101Y-72335713D01*
X71840141Y-72313903D01*
X71809144Y-72304802D01*
X71778885Y-72285356D01*
X71720053Y-72247547D01*
X71720051Y-72247546D01*
X71720049Y-72247545D01*
X71720050Y-72247545D01*
X71581963Y-72207000D01*
X71581961Y-72207000D01*
X71438039Y-72207000D01*
X71438036Y-72207000D01*
X71299949Y-72247545D01*
X71178869Y-72325358D01*
X71127884Y-72384201D01*
X71069107Y-72421977D01*
X71034170Y-72427000D01*
X68793499Y-72427000D01*
X68726460Y-72407315D01*
X68699786Y-72384203D01*
X68699784Y-72384201D01*
X68666126Y-72345357D01*
X68545051Y-72267547D01*
X68545049Y-72267546D01*
X68545047Y-72267545D01*
X68545048Y-72267545D01*
X68406961Y-72227000D01*
X68406959Y-72227000D01*
X68263037Y-72227000D01*
X68263034Y-72227000D01*
X68124947Y-72267545D01*
X68003871Y-72345356D01*
X67909621Y-72454126D01*
X67909620Y-72454128D01*
X67849832Y-72585043D01*
X67829351Y-72727500D01*
X65516393Y-72727500D01*
X65326819Y-72537926D01*
X65293334Y-72476603D01*
X65290500Y-72450245D01*
X65290500Y-62590229D01*
X65290501Y-62590216D01*
X65290501Y-62474774D01*
X65290501Y-62474773D01*
X65263207Y-62372913D01*
X65227292Y-62310707D01*
X65210480Y-62281587D01*
X65135913Y-62207020D01*
X65135912Y-62207019D01*
X65131582Y-62202689D01*
X65131571Y-62202679D01*
X64726392Y-61797500D01*
X65493607Y-61797500D01*
X65763181Y-62067074D01*
X65796666Y-62128397D01*
X65799500Y-62154755D01*
X65799500Y-71634577D01*
X65788294Y-71686089D01*
X65724834Y-71825043D01*
X65704353Y-71967500D01*
X65724834Y-72109956D01*
X65769360Y-72207453D01*
X65784623Y-72240873D01*
X65878872Y-72349643D01*
X65999947Y-72427453D01*
X65999950Y-72427454D01*
X65999949Y-72427454D01*
X66138036Y-72467999D01*
X66138038Y-72468000D01*
X66138039Y-72468000D01*
X66281962Y-72468000D01*
X66281962Y-72467999D01*
X66420053Y-72427453D01*
X66541128Y-72349643D01*
X66635377Y-72240873D01*
X66695165Y-72109957D01*
X66715647Y-71967500D01*
X66695165Y-71825043D01*
X66635377Y-71694127D01*
X66630783Y-71688825D01*
X66601761Y-71625268D01*
X66600500Y-71607626D01*
X66600500Y-61884775D01*
X66600500Y-61884773D01*
X66577116Y-61797500D01*
X69819500Y-61797500D01*
X69819500Y-69597062D01*
X69829739Y-69635275D01*
X69839979Y-69673491D01*
X69839981Y-69673494D01*
X69872578Y-69729952D01*
X69872579Y-69729958D01*
X69872581Y-69729958D01*
X69879538Y-69742008D01*
X69879541Y-69742013D01*
X71770604Y-71633075D01*
X71804089Y-71694398D01*
X71805661Y-71738402D01*
X71804353Y-71747499D01*
X71824834Y-71889956D01*
X71851093Y-71947454D01*
X71884623Y-72020873D01*
X71969897Y-72119285D01*
X71979857Y-72141095D01*
X72010854Y-72150196D01*
X72099947Y-72207453D01*
X72099950Y-72207454D01*
X72099949Y-72207454D01*
X72207107Y-72238917D01*
X72236496Y-72247547D01*
X72238036Y-72247999D01*
X72238038Y-72248000D01*
X72238039Y-72248000D01*
X72381962Y-72248000D01*
X72381962Y-72247999D01*
X72520053Y-72207453D01*
X72641128Y-72129643D01*
X72735377Y-72020873D01*
X72795165Y-71889957D01*
X72815647Y-71747500D01*
X72795165Y-71605043D01*
X72741484Y-71487500D01*
X73374353Y-71487500D01*
X73394834Y-71629956D01*
X73444361Y-71738402D01*
X73454623Y-71760873D01*
X73548872Y-71869643D01*
X73669947Y-71947453D01*
X73669950Y-71947454D01*
X73669949Y-71947454D01*
X73808036Y-71987999D01*
X73808038Y-71988000D01*
X73808039Y-71988000D01*
X73951962Y-71988000D01*
X73951962Y-71987999D01*
X74090053Y-71947453D01*
X74211128Y-71869643D01*
X74221806Y-71857318D01*
X74236124Y-71840797D01*
X74294902Y-71803023D01*
X74329836Y-71798000D01*
X81104167Y-71798000D01*
X81171206Y-71817685D01*
X81191848Y-71834319D01*
X81659540Y-72302011D01*
X81715489Y-72357960D01*
X81715491Y-72357961D01*
X81715495Y-72357964D01*
X81760940Y-72384201D01*
X81784011Y-72397521D01*
X81860438Y-72418000D01*
X81939562Y-72418000D01*
X82381421Y-72418000D01*
X82448460Y-72437685D01*
X82494215Y-72490489D01*
X82500081Y-72506003D01*
X82504768Y-72521454D01*
X82602315Y-72703950D01*
X82615673Y-72720227D01*
X82733589Y-72863910D01*
X82793910Y-72913413D01*
X82893550Y-72995185D01*
X83076046Y-73092732D01*
X83274066Y-73152800D01*
X83274065Y-73152800D01*
X83292529Y-73154618D01*
X83480000Y-73173083D01*
X83685934Y-73152800D01*
X83883954Y-73092732D01*
X84066450Y-72995185D01*
X84226410Y-72863910D01*
X84357685Y-72703950D01*
X84455232Y-72521454D01*
X84515300Y-72323434D01*
X84535583Y-72117500D01*
X84515300Y-71911566D01*
X84455232Y-71713546D01*
X84357685Y-71531050D01*
X84305702Y-71467709D01*
X84226410Y-71371089D01*
X84087435Y-71257037D01*
X84066450Y-71239815D01*
X83883954Y-71142268D01*
X83685934Y-71082200D01*
X83685932Y-71082199D01*
X83685934Y-71082199D01*
X83480000Y-71061917D01*
X83274067Y-71082199D01*
X83076043Y-71142269D01*
X82965898Y-71201143D01*
X82893550Y-71239815D01*
X82893548Y-71239816D01*
X82893547Y-71239817D01*
X82733589Y-71371089D01*
X82602317Y-71531047D01*
X82504769Y-71713543D01*
X82504768Y-71713546D01*
X82500081Y-71728997D01*
X82461783Y-71787435D01*
X82397970Y-71815891D01*
X82381421Y-71817000D01*
X82075833Y-71817000D01*
X82008794Y-71797315D01*
X81988152Y-71780681D01*
X81464512Y-71257041D01*
X81464507Y-71257037D01*
X81434675Y-71239814D01*
X81434675Y-71239813D01*
X81434673Y-71239813D01*
X81395994Y-71217481D01*
X81395991Y-71217479D01*
X81357775Y-71207239D01*
X81319562Y-71197000D01*
X81319560Y-71197000D01*
X74347166Y-71197000D01*
X74280127Y-71177315D01*
X74253453Y-71154202D01*
X74211130Y-71105358D01*
X74143534Y-71061917D01*
X74090053Y-71027547D01*
X74090051Y-71027546D01*
X74090049Y-71027545D01*
X74090050Y-71027545D01*
X73951963Y-70987000D01*
X73951961Y-70987000D01*
X73808039Y-70987000D01*
X73808036Y-70987000D01*
X73669949Y-71027545D01*
X73548873Y-71105356D01*
X73454623Y-71214126D01*
X73454622Y-71214128D01*
X73394834Y-71345043D01*
X73374353Y-71487500D01*
X72741484Y-71487500D01*
X72735377Y-71474127D01*
X72641128Y-71365357D01*
X72520053Y-71287547D01*
X72520051Y-71287546D01*
X72520049Y-71287545D01*
X72520050Y-71287545D01*
X72381963Y-71247000D01*
X72381961Y-71247000D01*
X72285833Y-71247000D01*
X72218794Y-71227315D01*
X72198152Y-71210681D01*
X70574971Y-69587500D01*
X72604353Y-69587500D01*
X72624834Y-69729956D01*
X72649256Y-69783432D01*
X72684623Y-69860873D01*
X72778872Y-69969643D01*
X72899947Y-70047453D01*
X72899950Y-70047454D01*
X72899949Y-70047454D01*
X73038036Y-70087999D01*
X73038038Y-70088000D01*
X73038039Y-70088000D01*
X73181962Y-70088000D01*
X73181962Y-70087999D01*
X73320053Y-70047453D01*
X73441128Y-69969643D01*
X73474788Y-69930796D01*
X73533567Y-69893023D01*
X73568501Y-69888000D01*
X73769560Y-69888000D01*
X73769562Y-69888000D01*
X73791114Y-69882224D01*
X73823207Y-69878000D01*
X82381421Y-69878000D01*
X82448460Y-69897685D01*
X82494215Y-69950489D01*
X82500081Y-69966003D01*
X82504768Y-69981454D01*
X82602315Y-70163950D01*
X82602317Y-70163952D01*
X82733589Y-70323910D01*
X82830209Y-70403202D01*
X82893550Y-70455185D01*
X83076046Y-70552732D01*
X83274066Y-70612800D01*
X83274065Y-70612800D01*
X83292529Y-70614618D01*
X83480000Y-70633083D01*
X83685934Y-70612800D01*
X83883954Y-70552732D01*
X84066450Y-70455185D01*
X84226410Y-70323910D01*
X84357685Y-70163950D01*
X84455232Y-69981454D01*
X84515300Y-69783434D01*
X84535583Y-69577500D01*
X84515300Y-69371566D01*
X84455232Y-69173546D01*
X84357685Y-68991050D01*
X84305702Y-68927709D01*
X84226410Y-68831089D01*
X84066452Y-68699817D01*
X84066453Y-68699817D01*
X84066450Y-68699815D01*
X83883954Y-68602268D01*
X83685934Y-68542200D01*
X83685932Y-68542199D01*
X83685934Y-68542199D01*
X83480000Y-68521917D01*
X83274067Y-68542199D01*
X83076043Y-68602269D01*
X82965898Y-68661143D01*
X82893550Y-68699815D01*
X82893548Y-68699816D01*
X82893547Y-68699817D01*
X82733589Y-68831089D01*
X82602317Y-68991047D01*
X82504769Y-69173543D01*
X82504768Y-69173546D01*
X82500081Y-69188997D01*
X82461783Y-69247435D01*
X82397970Y-69275891D01*
X82381421Y-69277000D01*
X73700438Y-69277000D01*
X73678886Y-69282775D01*
X73646793Y-69287000D01*
X73568501Y-69287000D01*
X73501462Y-69267315D01*
X73474788Y-69244203D01*
X73441128Y-69205357D01*
X73320053Y-69127547D01*
X73320051Y-69127546D01*
X73320049Y-69127545D01*
X73320050Y-69127545D01*
X73181963Y-69087000D01*
X73181961Y-69087000D01*
X73038039Y-69087000D01*
X73038036Y-69087000D01*
X72899949Y-69127545D01*
X72778873Y-69205356D01*
X72684623Y-69314126D01*
X72684622Y-69314128D01*
X72624834Y-69445043D01*
X72604353Y-69587500D01*
X70574971Y-69587500D01*
X70456819Y-69469348D01*
X70423334Y-69408025D01*
X70420500Y-69381667D01*
X70420500Y-67907252D01*
X82429500Y-67907252D01*
X82441131Y-67965729D01*
X82441132Y-67965730D01*
X82485447Y-68032052D01*
X82551769Y-68076367D01*
X82551770Y-68076368D01*
X82610247Y-68087999D01*
X82610250Y-68088000D01*
X82610252Y-68088000D01*
X84349750Y-68088000D01*
X84349751Y-68087999D01*
X84364568Y-68085052D01*
X84408229Y-68076368D01*
X84408229Y-68076367D01*
X84408231Y-68076367D01*
X84474552Y-68032052D01*
X84518867Y-67965731D01*
X84518867Y-67965729D01*
X84518868Y-67965729D01*
X84530499Y-67907252D01*
X84530500Y-67907250D01*
X84530500Y-66167749D01*
X84530499Y-66167747D01*
X84518868Y-66109270D01*
X84518867Y-66109269D01*
X84474552Y-66042947D01*
X84408230Y-65998632D01*
X84408229Y-65998631D01*
X84349752Y-65987000D01*
X84349748Y-65987000D01*
X82610252Y-65987000D01*
X82610247Y-65987000D01*
X82551770Y-65998631D01*
X82551769Y-65998632D01*
X82485447Y-66042947D01*
X82441132Y-66109269D01*
X82441131Y-66109270D01*
X82429500Y-66167747D01*
X82429500Y-67907252D01*
X70420500Y-67907252D01*
X70420500Y-61797500D01*
X70951987Y-61797500D01*
X70962470Y-61830978D01*
X70962471Y-61830983D01*
X70976872Y-61857355D01*
X70995956Y-61892305D01*
X70995958Y-61892308D01*
X70995960Y-61892311D01*
X71030998Y-61939115D01*
X71031002Y-61939119D01*
X71031009Y-61939129D01*
X71150000Y-62058120D01*
X71150000Y-62227500D01*
X87232090Y-62227500D01*
X87228706Y-72020871D01*
X87224556Y-84027500D01*
X62480000Y-84027500D01*
X62480000Y-81287486D01*
X62480000Y-80673658D01*
X62499685Y-80606619D01*
X62552489Y-80560864D01*
X62621647Y-80550920D01*
X62685203Y-80579945D01*
X62698079Y-80594807D01*
X62698815Y-80594170D01*
X62704622Y-80600872D01*
X62704623Y-80600873D01*
X62798872Y-80709643D01*
X62919947Y-80787453D01*
X62919950Y-80787454D01*
X62919949Y-80787454D01*
X63058036Y-80827999D01*
X63058038Y-80828000D01*
X63058039Y-80828000D01*
X63201962Y-80828000D01*
X63201962Y-80827999D01*
X63340053Y-80787453D01*
X63461128Y-80709643D01*
X63494788Y-80670796D01*
X63553567Y-80633023D01*
X63588501Y-80628000D01*
X66669560Y-80628000D01*
X66669562Y-80628000D01*
X66745989Y-80607521D01*
X66814511Y-80567960D01*
X66870460Y-80512011D01*
X67470460Y-79912011D01*
X67496131Y-79867547D01*
X67510021Y-79843489D01*
X67530500Y-79767062D01*
X67530500Y-78628157D01*
X67550185Y-78561118D01*
X67560780Y-78546962D01*
X67635377Y-78460873D01*
X67695165Y-78329957D01*
X67715647Y-78187500D01*
X67695165Y-78045043D01*
X67635377Y-77914127D01*
X67541128Y-77805357D01*
X67420053Y-77727547D01*
X67420051Y-77727546D01*
X67420049Y-77727545D01*
X67420050Y-77727545D01*
X67281963Y-77687000D01*
X67281961Y-77687000D01*
X67138039Y-77687000D01*
X67138036Y-77687000D01*
X66999949Y-77727545D01*
X66878873Y-77805356D01*
X66784623Y-77914126D01*
X66784622Y-77914128D01*
X66724834Y-78045043D01*
X66704353Y-78187500D01*
X66724834Y-78329956D01*
X66784622Y-78460871D01*
X66784623Y-78460873D01*
X66878872Y-78569643D01*
X66878874Y-78569644D01*
X66885577Y-78575453D01*
X66883331Y-78578043D01*
X66918265Y-78618311D01*
X66929500Y-78669888D01*
X66929500Y-79551667D01*
X66909815Y-79618706D01*
X66893181Y-79639348D01*
X66541848Y-79990681D01*
X66480525Y-80024166D01*
X66454167Y-80027000D01*
X63588501Y-80027000D01*
X63521462Y-80007315D01*
X63494788Y-79984203D01*
X63492308Y-79981341D01*
X63461128Y-79945357D01*
X63340053Y-79867547D01*
X63340051Y-79867546D01*
X63340049Y-79867545D01*
X63340050Y-79867545D01*
X63201963Y-79827000D01*
X63201961Y-79827000D01*
X63058039Y-79827000D01*
X63058036Y-79827000D01*
X62919949Y-79867545D01*
X62919950Y-79867545D01*
X62798873Y-79945356D01*
X62798872Y-79945356D01*
X62798872Y-79945357D01*
X62728129Y-80027000D01*
X62698815Y-80060830D01*
X62696384Y-80058723D01*
X62655489Y-80094146D01*
X62586329Y-80104075D01*
X62522779Y-80075038D01*
X62485016Y-80016252D01*
X62480000Y-79981341D01*
X62480000Y-78627500D01*
X62854353Y-78627500D01*
X62874834Y-78769956D01*
X62934622Y-78900871D01*
X62934623Y-78900873D01*
X63028872Y-79009643D01*
X63149947Y-79087453D01*
X63149950Y-79087454D01*
X63149949Y-79087454D01*
X63288036Y-79127999D01*
X63288038Y-79128000D01*
X63288039Y-79128000D01*
X63431962Y-79128000D01*
X63431962Y-79127999D01*
X63570053Y-79087453D01*
X63691128Y-79009643D01*
X63724788Y-78970796D01*
X63783567Y-78933023D01*
X63818501Y-78928000D01*
X65492834Y-78928000D01*
X65559873Y-78947685D01*
X65586547Y-78970798D01*
X65628869Y-79019641D01*
X65628871Y-79019642D01*
X65628872Y-79019643D01*
X65749947Y-79097453D01*
X65749950Y-79097454D01*
X65749949Y-79097454D01*
X65888036Y-79137999D01*
X65888038Y-79138000D01*
X65888039Y-79138000D01*
X66031962Y-79138000D01*
X66031962Y-79137999D01*
X66170053Y-79097453D01*
X66291128Y-79019643D01*
X66385377Y-78910873D01*
X66445165Y-78779957D01*
X66465647Y-78637500D01*
X66445165Y-78495043D01*
X66385377Y-78364127D01*
X66291128Y-78255357D01*
X66170053Y-78177547D01*
X66170051Y-78177546D01*
X66170049Y-78177545D01*
X66170050Y-78177545D01*
X66031963Y-78137000D01*
X66031961Y-78137000D01*
X65888039Y-78137000D01*
X65888036Y-78137000D01*
X65749949Y-78177545D01*
X65628872Y-78255357D01*
X65628869Y-78255359D01*
X65603876Y-78284203D01*
X65545098Y-78321977D01*
X65510164Y-78327000D01*
X63818501Y-78327000D01*
X63751462Y-78307315D01*
X63724788Y-78284203D01*
X63691128Y-78245357D01*
X63570053Y-78167547D01*
X63570051Y-78167546D01*
X63570049Y-78167545D01*
X63570050Y-78167545D01*
X63431963Y-78127000D01*
X63431961Y-78127000D01*
X63288039Y-78127000D01*
X63288036Y-78127000D01*
X63149949Y-78167545D01*
X63028873Y-78245356D01*
X62934623Y-78354126D01*
X62934622Y-78354128D01*
X62874834Y-78485043D01*
X62854353Y-78627500D01*
X62480000Y-78627500D01*
X62480000Y-62187500D01*
X62480000Y-61797500D01*
X63593608Y-61797500D01*
X64453181Y-62657073D01*
G37*
G04 #@! TD.AperFunction*
G04 #@! TA.AperFunction,Conductor*
G36*
X70860231Y-39957685D02*
G01*
X70905986Y-40010489D01*
X70917192Y-40061866D01*
X70934500Y-56087722D01*
X70934500Y-61706138D01*
X70935678Y-61728118D01*
X70938511Y-61754465D01*
X70938512Y-61754467D01*
X70962470Y-61830978D01*
X70962471Y-61830983D01*
X70976872Y-61857355D01*
X70995956Y-61892305D01*
X70995958Y-61892308D01*
X70995960Y-61892311D01*
X71030998Y-61939115D01*
X71031002Y-61939119D01*
X71031009Y-61939129D01*
X71079380Y-61987500D01*
X70420500Y-61987500D01*
X70420500Y-55417939D01*
X70400022Y-55341513D01*
X70360460Y-55272990D01*
X69839297Y-54751827D01*
X69805812Y-54690504D01*
X69810796Y-54620812D01*
X69817617Y-54605697D01*
X69825231Y-54591454D01*
X69885299Y-54393434D01*
X69905582Y-54187500D01*
X69885299Y-53981566D01*
X69825231Y-53783546D01*
X69727684Y-53601050D01*
X69675701Y-53537709D01*
X69596409Y-53441089D01*
X69446120Y-53317752D01*
X69436449Y-53309815D01*
X69253953Y-53212268D01*
X69055933Y-53152200D01*
X69055931Y-53152199D01*
X69055933Y-53152199D01*
X68849999Y-53131917D01*
X68644066Y-53152199D01*
X68446042Y-53212269D01*
X68358113Y-53259269D01*
X68263549Y-53309815D01*
X68263547Y-53309816D01*
X68263546Y-53309817D01*
X68103588Y-53441089D01*
X67972316Y-53601047D01*
X67874768Y-53783543D01*
X67814698Y-53981567D01*
X67794416Y-54187500D01*
X67814698Y-54393432D01*
X67814699Y-54393434D01*
X67874767Y-54591454D01*
X67972314Y-54773950D01*
X67972316Y-54773952D01*
X68103588Y-54933910D01*
X68138844Y-54962843D01*
X68263549Y-55065185D01*
X68446045Y-55162732D01*
X68644065Y-55222800D01*
X68644064Y-55222800D01*
X68662528Y-55224618D01*
X68849999Y-55243083D01*
X69055933Y-55222800D01*
X69253953Y-55162732D01*
X69268190Y-55155121D01*
X69336591Y-55140879D01*
X69401836Y-55165877D01*
X69414326Y-55176798D01*
X69783181Y-55545653D01*
X69816666Y-55606976D01*
X69819500Y-55633334D01*
X69819500Y-61987500D01*
X66600500Y-61987500D01*
X66600500Y-61884773D01*
X66573207Y-61782913D01*
X66573207Y-61782912D01*
X66520480Y-61691587D01*
X60905913Y-56077020D01*
X60860250Y-56050656D01*
X60814589Y-56024293D01*
X60763657Y-56010646D01*
X60712727Y-55997000D01*
X60712726Y-55997000D01*
X49343984Y-55997000D01*
X49276945Y-55977315D01*
X49180055Y-55915047D01*
X49180050Y-55915045D01*
X49041963Y-55874500D01*
X49041961Y-55874500D01*
X48898039Y-55874500D01*
X48898036Y-55874500D01*
X48759949Y-55915045D01*
X48638873Y-55992856D01*
X48544623Y-56101626D01*
X48544622Y-56101628D01*
X48484834Y-56232543D01*
X48464353Y-56375000D01*
X48484834Y-56517456D01*
X48544622Y-56648371D01*
X48544623Y-56648373D01*
X48638872Y-56757143D01*
X48759947Y-56834953D01*
X48759950Y-56834954D01*
X48759949Y-56834954D01*
X48898036Y-56875499D01*
X48898038Y-56875500D01*
X48898039Y-56875500D01*
X49041962Y-56875500D01*
X49041962Y-56875499D01*
X49169768Y-56837973D01*
X49180050Y-56834954D01*
X49180051Y-56834954D01*
X49180053Y-56834953D01*
X49206922Y-56817684D01*
X49273961Y-56798000D01*
X60442745Y-56798000D01*
X60509784Y-56817685D01*
X60530426Y-56834319D01*
X65683607Y-61987500D01*
X64916392Y-61987500D01*
X60815915Y-57887022D01*
X60815914Y-57887021D01*
X60815913Y-57887020D01*
X60770250Y-57860656D01*
X60724589Y-57834293D01*
X60663243Y-57817856D01*
X60622727Y-57807000D01*
X60622726Y-57807000D01*
X49320643Y-57807000D01*
X49253604Y-57787315D01*
X49230378Y-57772389D01*
X49180051Y-57740045D01*
X49041963Y-57699500D01*
X49041961Y-57699500D01*
X48898039Y-57699500D01*
X48898036Y-57699500D01*
X48759949Y-57740045D01*
X48638873Y-57817856D01*
X48544623Y-57926626D01*
X48544622Y-57926628D01*
X48484834Y-58057543D01*
X48464353Y-58200000D01*
X48484834Y-58342456D01*
X48519637Y-58418662D01*
X48544623Y-58473373D01*
X48638872Y-58582143D01*
X48759947Y-58659953D01*
X48759950Y-58659954D01*
X48759949Y-58659954D01*
X48898036Y-58700499D01*
X48898038Y-58700500D01*
X48898039Y-58700500D01*
X49041962Y-58700500D01*
X49041962Y-58700499D01*
X49102298Y-58682783D01*
X49180048Y-58659955D01*
X49180049Y-58659954D01*
X49180053Y-58659953D01*
X49230265Y-58627683D01*
X49297303Y-58608000D01*
X60352745Y-58608000D01*
X60419784Y-58627685D01*
X60440426Y-58644319D01*
X63783608Y-61987500D01*
X41347650Y-61987500D01*
X41280611Y-61967815D01*
X41234856Y-61915011D01*
X41223650Y-61863455D01*
X41224871Y-58473371D01*
X41225370Y-57087252D01*
X43029500Y-57087252D01*
X43041131Y-57145729D01*
X43041132Y-57145730D01*
X43085447Y-57212052D01*
X43151769Y-57256367D01*
X43151770Y-57256368D01*
X43210247Y-57267999D01*
X43210250Y-57268000D01*
X43210252Y-57268000D01*
X44949750Y-57268000D01*
X44949751Y-57267999D01*
X44964568Y-57265052D01*
X45008229Y-57256368D01*
X45008229Y-57256367D01*
X45008231Y-57256367D01*
X45074552Y-57212052D01*
X45118867Y-57145731D01*
X45118867Y-57145729D01*
X45118868Y-57145729D01*
X45130499Y-57087252D01*
X45130500Y-57087250D01*
X45130500Y-55347749D01*
X45130499Y-55347747D01*
X45118868Y-55289270D01*
X45118867Y-55289269D01*
X45074552Y-55222947D01*
X45008230Y-55178632D01*
X45008229Y-55178631D01*
X44949752Y-55167000D01*
X44949748Y-55167000D01*
X43210252Y-55167000D01*
X43210247Y-55167000D01*
X43151770Y-55178631D01*
X43151769Y-55178632D01*
X43085447Y-55222947D01*
X43041132Y-55289269D01*
X43041131Y-55289270D01*
X43029500Y-55347747D01*
X43029500Y-57087252D01*
X41225370Y-57087252D01*
X41226101Y-55057252D01*
X62719500Y-55057252D01*
X62731131Y-55115729D01*
X62731132Y-55115730D01*
X62775447Y-55182052D01*
X62841769Y-55226367D01*
X62841770Y-55226368D01*
X62900247Y-55237999D01*
X62900250Y-55238000D01*
X62900252Y-55238000D01*
X63295500Y-55238000D01*
X63362539Y-55257685D01*
X63408294Y-55310489D01*
X63419500Y-55362000D01*
X63419500Y-55913644D01*
X63419876Y-55915047D01*
X63440724Y-55992854D01*
X63443385Y-56002786D01*
X63443387Y-56002790D01*
X63489527Y-56082708D01*
X63489529Y-56082711D01*
X63489530Y-56082712D01*
X64179531Y-56772712D01*
X64244788Y-56837969D01*
X64244791Y-56837970D01*
X64244794Y-56837973D01*
X64324706Y-56884111D01*
X64324707Y-56884111D01*
X64324712Y-56884114D01*
X64413856Y-56908000D01*
X67483456Y-56908000D01*
X67550495Y-56927685D01*
X67571137Y-56944319D01*
X68526742Y-57899924D01*
X68560227Y-57961247D01*
X68561799Y-57969957D01*
X68574392Y-58057543D01*
X68574835Y-58060619D01*
X68634623Y-58191535D01*
X68728872Y-58300305D01*
X68849947Y-58378115D01*
X68849950Y-58378116D01*
X68849949Y-58378116D01*
X68988036Y-58418661D01*
X68988038Y-58418662D01*
X68988039Y-58418662D01*
X69131962Y-58418662D01*
X69131962Y-58418661D01*
X69270053Y-58378115D01*
X69391128Y-58300305D01*
X69485377Y-58191535D01*
X69545165Y-58060619D01*
X69565647Y-57918162D01*
X69545165Y-57775705D01*
X69485377Y-57644789D01*
X69391128Y-57536019D01*
X69270053Y-57458209D01*
X69270051Y-57458208D01*
X69270049Y-57458207D01*
X69270050Y-57458207D01*
X69131963Y-57417662D01*
X69131961Y-57417662D01*
X69087206Y-57417662D01*
X69020167Y-57397977D01*
X68999525Y-57381343D01*
X67895213Y-56277031D01*
X67895208Y-56277027D01*
X67815290Y-56230887D01*
X67815289Y-56230886D01*
X67815288Y-56230886D01*
X67726144Y-56207000D01*
X67726143Y-56207000D01*
X64656543Y-56207000D01*
X64589504Y-56187315D01*
X64568862Y-56170681D01*
X64156819Y-55758637D01*
X64123334Y-55697314D01*
X64120500Y-55670956D01*
X64120500Y-55362000D01*
X64140185Y-55294961D01*
X64192989Y-55249206D01*
X64244500Y-55238000D01*
X64639750Y-55238000D01*
X64639751Y-55237999D01*
X64654568Y-55235052D01*
X64698229Y-55226368D01*
X64698229Y-55226367D01*
X64698231Y-55226367D01*
X64764552Y-55182052D01*
X64808867Y-55115731D01*
X64808867Y-55115729D01*
X64808868Y-55115729D01*
X64820499Y-55057252D01*
X64820500Y-55057250D01*
X64820500Y-54187500D01*
X65254417Y-54187500D01*
X65274699Y-54393432D01*
X65274700Y-54393434D01*
X65334768Y-54591454D01*
X65432315Y-54773950D01*
X65432317Y-54773952D01*
X65563589Y-54933910D01*
X65598845Y-54962843D01*
X65723550Y-55065185D01*
X65906046Y-55162732D01*
X66104066Y-55222800D01*
X66104065Y-55222800D01*
X66122529Y-55224618D01*
X66310000Y-55243083D01*
X66515934Y-55222800D01*
X66713954Y-55162732D01*
X66896450Y-55065185D01*
X67056410Y-54933910D01*
X67187685Y-54773950D01*
X67285232Y-54591454D01*
X67345300Y-54393434D01*
X67365583Y-54187500D01*
X67345300Y-53981566D01*
X67285232Y-53783546D01*
X67187685Y-53601050D01*
X67135702Y-53537709D01*
X67056410Y-53441089D01*
X66906121Y-53317752D01*
X66896450Y-53309815D01*
X66713954Y-53212268D01*
X66515934Y-53152200D01*
X66515932Y-53152199D01*
X66515934Y-53152199D01*
X66310000Y-53131917D01*
X66104067Y-53152199D01*
X65906043Y-53212269D01*
X65818114Y-53259269D01*
X65723550Y-53309815D01*
X65723548Y-53309816D01*
X65723547Y-53309817D01*
X65563589Y-53441089D01*
X65432317Y-53601047D01*
X65334769Y-53783543D01*
X65274699Y-53981567D01*
X65254417Y-54187500D01*
X64820500Y-54187500D01*
X64820500Y-53317749D01*
X64820499Y-53317747D01*
X64808868Y-53259270D01*
X64808867Y-53259269D01*
X64764552Y-53192947D01*
X64698230Y-53148632D01*
X64698229Y-53148631D01*
X64639752Y-53137000D01*
X64639748Y-53137000D01*
X62900252Y-53137000D01*
X62900247Y-53137000D01*
X62841770Y-53148631D01*
X62841769Y-53148632D01*
X62775447Y-53192947D01*
X62731132Y-53259269D01*
X62731131Y-53259270D01*
X62719500Y-53317747D01*
X62719500Y-55057252D01*
X41226101Y-55057252D01*
X41227329Y-51647500D01*
X62714417Y-51647500D01*
X62734699Y-51853432D01*
X62734700Y-51853434D01*
X62794768Y-52051454D01*
X62892315Y-52233950D01*
X62892317Y-52233952D01*
X63023589Y-52393910D01*
X63120209Y-52473202D01*
X63183550Y-52525185D01*
X63366046Y-52622732D01*
X63564066Y-52682800D01*
X63564065Y-52682800D01*
X63582529Y-52684618D01*
X63770000Y-52703083D01*
X63975934Y-52682800D01*
X64173954Y-52622732D01*
X64356450Y-52525185D01*
X64516410Y-52393910D01*
X64647685Y-52233950D01*
X64745232Y-52051454D01*
X64805300Y-51853434D01*
X64825583Y-51647500D01*
X65254417Y-51647500D01*
X65274699Y-51853432D01*
X65274700Y-51853434D01*
X65334768Y-52051454D01*
X65432315Y-52233950D01*
X65432317Y-52233952D01*
X65563589Y-52393910D01*
X65660209Y-52473202D01*
X65723550Y-52525185D01*
X65906046Y-52622732D01*
X66104066Y-52682800D01*
X66104065Y-52682800D01*
X66122529Y-52684618D01*
X66310000Y-52703083D01*
X66515934Y-52682800D01*
X66713954Y-52622732D01*
X66896450Y-52525185D01*
X67056410Y-52393910D01*
X67187685Y-52233950D01*
X67285232Y-52051454D01*
X67345300Y-51853434D01*
X67365583Y-51647500D01*
X67345300Y-51441566D01*
X67285232Y-51243546D01*
X67187685Y-51061050D01*
X67135702Y-50997709D01*
X67056410Y-50901089D01*
X66896452Y-50769817D01*
X66896453Y-50769817D01*
X66896450Y-50769815D01*
X66713954Y-50672268D01*
X66515934Y-50612200D01*
X66515932Y-50612199D01*
X66515934Y-50612199D01*
X66310000Y-50591917D01*
X66104067Y-50612199D01*
X65906043Y-50672269D01*
X65795898Y-50731143D01*
X65723550Y-50769815D01*
X65723548Y-50769816D01*
X65723547Y-50769817D01*
X65563589Y-50901089D01*
X65432317Y-51061047D01*
X65334769Y-51243543D01*
X65274699Y-51441567D01*
X65254417Y-51647500D01*
X64825583Y-51647500D01*
X64805300Y-51441566D01*
X64745232Y-51243546D01*
X64647685Y-51061050D01*
X64595702Y-50997709D01*
X64516410Y-50901089D01*
X64356452Y-50769817D01*
X64356453Y-50769817D01*
X64356450Y-50769815D01*
X64173954Y-50672268D01*
X63975934Y-50612200D01*
X63975932Y-50612199D01*
X63975934Y-50612199D01*
X63770000Y-50591917D01*
X63564067Y-50612199D01*
X63366043Y-50672269D01*
X63255898Y-50731143D01*
X63183550Y-50769815D01*
X63183548Y-50769816D01*
X63183547Y-50769817D01*
X63023589Y-50901089D01*
X62892317Y-51061047D01*
X62794769Y-51243543D01*
X62734699Y-51441567D01*
X62714417Y-51647500D01*
X41227329Y-51647500D01*
X41228998Y-47011953D01*
X41248707Y-46944923D01*
X41301527Y-46899187D01*
X41352998Y-46888000D01*
X57120991Y-46888000D01*
X57121000Y-46888000D01*
X57164684Y-46883303D01*
X57193875Y-46876952D01*
X57216174Y-46872102D01*
X57216190Y-46872098D01*
X57216195Y-46872097D01*
X57226373Y-46869610D01*
X57307085Y-46826600D01*
X57359889Y-46780845D01*
X57377843Y-46763254D01*
X57422490Y-46683437D01*
X57442175Y-46616398D01*
X57450500Y-46558500D01*
X57450500Y-40062000D01*
X57470185Y-39994961D01*
X57522989Y-39949206D01*
X57574500Y-39938000D01*
X70793192Y-39938000D01*
X70860231Y-39957685D01*
G37*
G04 #@! TD.AperFunction*
G04 #@! TA.AperFunction,Conductor*
G36*
X47971666Y-90007004D02*
G01*
X47974500Y-90033362D01*
X47974500Y-97351138D01*
X47975678Y-97373118D01*
X47978511Y-97399465D01*
X47978512Y-97399467D01*
X48002470Y-97475978D01*
X48002471Y-97475983D01*
X48016872Y-97502355D01*
X48035956Y-97537305D01*
X48035958Y-97537308D01*
X48035960Y-97537311D01*
X48070998Y-97584115D01*
X48071002Y-97584119D01*
X48071009Y-97584129D01*
X48198369Y-97711489D01*
X48198375Y-97711495D01*
X48214716Y-97726174D01*
X48214730Y-97726186D01*
X48214738Y-97726193D01*
X48223136Y-97732960D01*
X48235379Y-97742827D01*
X48306424Y-97779990D01*
X48373456Y-97799673D01*
X48373458Y-97799673D01*
X48373464Y-97799675D01*
X48431362Y-97808000D01*
X48431366Y-97808000D01*
X54003639Y-97808000D01*
X54006180Y-97807863D01*
X54025607Y-97806822D01*
X54025614Y-97806821D01*
X54025618Y-97806821D01*
X54051965Y-97803988D01*
X54128482Y-97780029D01*
X54189805Y-97746544D01*
X54236629Y-97711491D01*
X54363991Y-97584129D01*
X54378693Y-97567762D01*
X54395327Y-97547120D01*
X54432490Y-97476075D01*
X54452175Y-97409036D01*
X54460500Y-97351138D01*
X54460500Y-96667253D01*
X57935461Y-96667253D01*
X57947092Y-96725730D01*
X57947093Y-96725731D01*
X57991408Y-96792053D01*
X58057730Y-96836368D01*
X58057731Y-96836369D01*
X58116208Y-96848000D01*
X58116211Y-96848001D01*
X58116213Y-96848001D01*
X59855711Y-96848001D01*
X59855712Y-96848000D01*
X59870529Y-96845053D01*
X59914190Y-96836369D01*
X59914190Y-96836368D01*
X59914192Y-96836368D01*
X59980513Y-96792053D01*
X60024828Y-96725732D01*
X60024828Y-96725730D01*
X60024829Y-96725730D01*
X60036460Y-96667253D01*
X60036461Y-96667251D01*
X60036461Y-95797501D01*
X60470378Y-95797501D01*
X60490660Y-96003433D01*
X60490661Y-96003435D01*
X60550729Y-96201455D01*
X60648276Y-96383951D01*
X60648278Y-96383953D01*
X60779550Y-96543911D01*
X60876170Y-96623203D01*
X60939511Y-96675186D01*
X61122007Y-96772733D01*
X61320027Y-96832801D01*
X61320026Y-96832801D01*
X61338490Y-96834619D01*
X61525961Y-96853084D01*
X61731895Y-96832801D01*
X61929915Y-96772733D01*
X62112411Y-96675186D01*
X62272371Y-96543911D01*
X62403646Y-96383951D01*
X62501193Y-96201455D01*
X62561261Y-96003435D01*
X62581544Y-95797501D01*
X63010377Y-95797501D01*
X63030659Y-96003433D01*
X63030660Y-96003435D01*
X63090728Y-96201455D01*
X63188275Y-96383951D01*
X63188277Y-96383953D01*
X63319549Y-96543911D01*
X63416169Y-96623203D01*
X63479510Y-96675186D01*
X63662006Y-96772733D01*
X63860026Y-96832801D01*
X63860025Y-96832801D01*
X63878489Y-96834619D01*
X64065960Y-96853084D01*
X64271894Y-96832801D01*
X64469914Y-96772733D01*
X64652410Y-96675186D01*
X64812370Y-96543911D01*
X64943645Y-96383951D01*
X65041192Y-96201455D01*
X65101260Y-96003435D01*
X65121543Y-95797501D01*
X65550378Y-95797501D01*
X65570660Y-96003433D01*
X65570661Y-96003435D01*
X65630729Y-96201455D01*
X65728276Y-96383951D01*
X65728278Y-96383953D01*
X65859550Y-96543911D01*
X65956170Y-96623203D01*
X66019511Y-96675186D01*
X66202007Y-96772733D01*
X66400027Y-96832801D01*
X66400026Y-96832801D01*
X66418490Y-96834619D01*
X66605961Y-96853084D01*
X66811895Y-96832801D01*
X67009915Y-96772733D01*
X67192411Y-96675186D01*
X67352371Y-96543911D01*
X67483646Y-96383951D01*
X67581193Y-96201455D01*
X67641261Y-96003435D01*
X67661544Y-95797501D01*
X68090378Y-95797501D01*
X68110660Y-96003433D01*
X68110661Y-96003435D01*
X68170729Y-96201455D01*
X68268276Y-96383951D01*
X68268278Y-96383953D01*
X68399550Y-96543911D01*
X68496170Y-96623203D01*
X68559511Y-96675186D01*
X68742007Y-96772733D01*
X68940027Y-96832801D01*
X68940026Y-96832801D01*
X68958490Y-96834619D01*
X69145961Y-96853084D01*
X69351895Y-96832801D01*
X69549915Y-96772733D01*
X69732411Y-96675186D01*
X69892371Y-96543911D01*
X70023646Y-96383951D01*
X70121193Y-96201455D01*
X70181261Y-96003435D01*
X70201544Y-95797501D01*
X70630378Y-95797501D01*
X70650660Y-96003433D01*
X70650661Y-96003435D01*
X70710729Y-96201455D01*
X70808276Y-96383951D01*
X70808278Y-96383953D01*
X70939550Y-96543911D01*
X71036170Y-96623203D01*
X71099511Y-96675186D01*
X71282007Y-96772733D01*
X71480027Y-96832801D01*
X71480026Y-96832801D01*
X71498490Y-96834619D01*
X71685961Y-96853084D01*
X71891895Y-96832801D01*
X72089915Y-96772733D01*
X72272411Y-96675186D01*
X72432371Y-96543911D01*
X72563646Y-96383951D01*
X72661193Y-96201455D01*
X72721261Y-96003435D01*
X72741544Y-95797501D01*
X73170378Y-95797501D01*
X73190660Y-96003433D01*
X73190661Y-96003435D01*
X73250729Y-96201455D01*
X73348276Y-96383951D01*
X73348278Y-96383953D01*
X73479550Y-96543911D01*
X73576170Y-96623203D01*
X73639511Y-96675186D01*
X73822007Y-96772733D01*
X74020027Y-96832801D01*
X74020026Y-96832801D01*
X74038490Y-96834619D01*
X74225961Y-96853084D01*
X74431895Y-96832801D01*
X74629915Y-96772733D01*
X74812411Y-96675186D01*
X74972371Y-96543911D01*
X75103646Y-96383951D01*
X75201193Y-96201455D01*
X75261261Y-96003435D01*
X75281544Y-95797501D01*
X75710379Y-95797501D01*
X75730661Y-96003433D01*
X75730662Y-96003435D01*
X75790730Y-96201455D01*
X75888277Y-96383951D01*
X75888279Y-96383953D01*
X76019551Y-96543911D01*
X76116171Y-96623203D01*
X76179512Y-96675186D01*
X76362008Y-96772733D01*
X76560028Y-96832801D01*
X76560027Y-96832801D01*
X76578491Y-96834619D01*
X76765962Y-96853084D01*
X76971896Y-96832801D01*
X77169916Y-96772733D01*
X77352412Y-96675186D01*
X77512372Y-96543911D01*
X77643647Y-96383951D01*
X77741194Y-96201455D01*
X77801262Y-96003435D01*
X77821545Y-95797501D01*
X77801262Y-95591567D01*
X77741194Y-95393547D01*
X77643647Y-95211051D01*
X77591664Y-95147710D01*
X77512372Y-95051090D01*
X77362083Y-94927753D01*
X77352412Y-94919816D01*
X77169916Y-94822269D01*
X76971896Y-94762201D01*
X76971894Y-94762200D01*
X76971896Y-94762200D01*
X76765962Y-94741918D01*
X76560029Y-94762200D01*
X76362005Y-94822270D01*
X76274076Y-94869270D01*
X76179512Y-94919816D01*
X76179510Y-94919817D01*
X76179509Y-94919818D01*
X76019551Y-95051090D01*
X75888279Y-95211048D01*
X75790731Y-95393544D01*
X75730661Y-95591568D01*
X75710379Y-95797501D01*
X75281544Y-95797501D01*
X75261261Y-95591567D01*
X75201193Y-95393547D01*
X75103646Y-95211051D01*
X75051663Y-95147710D01*
X74972371Y-95051090D01*
X74822082Y-94927753D01*
X74812411Y-94919816D01*
X74629915Y-94822269D01*
X74431895Y-94762201D01*
X74431893Y-94762200D01*
X74431895Y-94762200D01*
X74225961Y-94741918D01*
X74020028Y-94762200D01*
X73822004Y-94822270D01*
X73734075Y-94869270D01*
X73639511Y-94919816D01*
X73639509Y-94919817D01*
X73639508Y-94919818D01*
X73479550Y-95051090D01*
X73348278Y-95211048D01*
X73250730Y-95393544D01*
X73190660Y-95591568D01*
X73170378Y-95797501D01*
X72741544Y-95797501D01*
X72721261Y-95591567D01*
X72661193Y-95393547D01*
X72563646Y-95211051D01*
X72511663Y-95147710D01*
X72432371Y-95051090D01*
X72282082Y-94927753D01*
X72272411Y-94919816D01*
X72089915Y-94822269D01*
X71891895Y-94762201D01*
X71891893Y-94762200D01*
X71891895Y-94762200D01*
X71685961Y-94741918D01*
X71480028Y-94762200D01*
X71282004Y-94822270D01*
X71194075Y-94869270D01*
X71099511Y-94919816D01*
X71099509Y-94919817D01*
X71099508Y-94919818D01*
X70939550Y-95051090D01*
X70808278Y-95211048D01*
X70710730Y-95393544D01*
X70650660Y-95591568D01*
X70630378Y-95797501D01*
X70201544Y-95797501D01*
X70181261Y-95591567D01*
X70121193Y-95393547D01*
X70023646Y-95211051D01*
X69971663Y-95147710D01*
X69892371Y-95051090D01*
X69742082Y-94927753D01*
X69732411Y-94919816D01*
X69549915Y-94822269D01*
X69351895Y-94762201D01*
X69351893Y-94762200D01*
X69351895Y-94762200D01*
X69145961Y-94741918D01*
X68940028Y-94762200D01*
X68742004Y-94822270D01*
X68654075Y-94869270D01*
X68559511Y-94919816D01*
X68559509Y-94919817D01*
X68559508Y-94919818D01*
X68399550Y-95051090D01*
X68268278Y-95211048D01*
X68170730Y-95393544D01*
X68110660Y-95591568D01*
X68090378Y-95797501D01*
X67661544Y-95797501D01*
X67641261Y-95591567D01*
X67581193Y-95393547D01*
X67483646Y-95211051D01*
X67431663Y-95147710D01*
X67352371Y-95051090D01*
X67202082Y-94927753D01*
X67192411Y-94919816D01*
X67009915Y-94822269D01*
X66811895Y-94762201D01*
X66811893Y-94762200D01*
X66811895Y-94762200D01*
X66605961Y-94741918D01*
X66400028Y-94762200D01*
X66202004Y-94822270D01*
X66114075Y-94869270D01*
X66019511Y-94919816D01*
X66019509Y-94919817D01*
X66019508Y-94919818D01*
X65859550Y-95051090D01*
X65728278Y-95211048D01*
X65630730Y-95393544D01*
X65570660Y-95591568D01*
X65550378Y-95797501D01*
X65121543Y-95797501D01*
X65101260Y-95591567D01*
X65041192Y-95393547D01*
X64943645Y-95211051D01*
X64891662Y-95147710D01*
X64812370Y-95051090D01*
X64662081Y-94927753D01*
X64652410Y-94919816D01*
X64469914Y-94822269D01*
X64271894Y-94762201D01*
X64271892Y-94762200D01*
X64271894Y-94762200D01*
X64065960Y-94741918D01*
X63860027Y-94762200D01*
X63662003Y-94822270D01*
X63574074Y-94869270D01*
X63479510Y-94919816D01*
X63479508Y-94919817D01*
X63479507Y-94919818D01*
X63319549Y-95051090D01*
X63188277Y-95211048D01*
X63090729Y-95393544D01*
X63030659Y-95591568D01*
X63010377Y-95797501D01*
X62581544Y-95797501D01*
X62561261Y-95591567D01*
X62501193Y-95393547D01*
X62403646Y-95211051D01*
X62351663Y-95147710D01*
X62272371Y-95051090D01*
X62122082Y-94927753D01*
X62112411Y-94919816D01*
X61929915Y-94822269D01*
X61731895Y-94762201D01*
X61731893Y-94762200D01*
X61731895Y-94762200D01*
X61525961Y-94741918D01*
X61320028Y-94762200D01*
X61122004Y-94822270D01*
X61034075Y-94869270D01*
X60939511Y-94919816D01*
X60939509Y-94919817D01*
X60939508Y-94919818D01*
X60779550Y-95051090D01*
X60648278Y-95211048D01*
X60550730Y-95393544D01*
X60490660Y-95591568D01*
X60470378Y-95797501D01*
X60036461Y-95797501D01*
X60036461Y-94927750D01*
X60036460Y-94927748D01*
X60024829Y-94869271D01*
X60024828Y-94869270D01*
X59980513Y-94802948D01*
X59914191Y-94758633D01*
X59914190Y-94758632D01*
X59855713Y-94747001D01*
X59855709Y-94747001D01*
X58116213Y-94747001D01*
X58116208Y-94747001D01*
X58057731Y-94758632D01*
X58057730Y-94758633D01*
X57991408Y-94802948D01*
X57947093Y-94869270D01*
X57947092Y-94869271D01*
X57935461Y-94927748D01*
X57935461Y-96667253D01*
X54460500Y-96667253D01*
X54460500Y-90121500D01*
X54480185Y-90054461D01*
X54532989Y-90008706D01*
X54584500Y-89997500D01*
X87098450Y-89997500D01*
X87165489Y-90017185D01*
X87211244Y-90069989D01*
X87222449Y-90121542D01*
X87219815Y-97746544D01*
X87219598Y-98373142D01*
X87199890Y-98440175D01*
X87147070Y-98485911D01*
X87095598Y-98497099D01*
X47790000Y-98497099D01*
X47790000Y-89997500D01*
X47966476Y-89997500D01*
X47971666Y-90007004D01*
G37*
G04 #@! TD.AperFunction*
G04 #@! TA.AperFunction,Conductor*
G36*
X87177555Y-55107185D02*
G01*
X87223310Y-55159989D01*
X87234515Y-55211542D01*
X87232091Y-62227500D01*
X71150000Y-62227500D01*
X71150000Y-62058120D01*
X71158365Y-62066486D01*
X71158366Y-62066487D01*
X71174716Y-62081174D01*
X71174730Y-62081186D01*
X71174738Y-62081193D01*
X71183136Y-62087960D01*
X71195379Y-62097827D01*
X71266424Y-62134990D01*
X71333456Y-62154673D01*
X71333458Y-62154673D01*
X71333464Y-62154675D01*
X71391362Y-62163000D01*
X71391366Y-62163000D01*
X81818639Y-62163000D01*
X81821180Y-62162863D01*
X81840607Y-62161822D01*
X81840614Y-62161821D01*
X81840618Y-62161821D01*
X81866965Y-62158988D01*
X81943482Y-62135029D01*
X82004805Y-62101544D01*
X82051629Y-62066491D01*
X82178991Y-61939129D01*
X82193693Y-61922762D01*
X82210327Y-61902120D01*
X82247490Y-61831075D01*
X82267175Y-61764036D01*
X82275500Y-61706138D01*
X82275500Y-55211500D01*
X82295185Y-55144461D01*
X82347989Y-55098706D01*
X82399500Y-55087500D01*
X87110516Y-55087500D01*
X87177555Y-55107185D01*
G37*
G04 #@! TD.AperFunction*
G04 #@! TA.AperFunction,Conductor*
G36*
X82070000Y-55137499D02*
G01*
X82070000Y-61706138D01*
X82050315Y-61773177D01*
X82033681Y-61793819D01*
X81906319Y-61921181D01*
X81844996Y-61954666D01*
X81818638Y-61957500D01*
X71391362Y-61957500D01*
X71324323Y-61937815D01*
X71303681Y-61921181D01*
X71176319Y-61793819D01*
X71142834Y-61732496D01*
X71140000Y-61706138D01*
X71140000Y-56287534D01*
X71140000Y-56287500D01*
X71140000Y-56087500D01*
X71120068Y-37631425D01*
X71135734Y-37577858D01*
X71135561Y-37577787D01*
X71136221Y-37576193D01*
X71138763Y-37567500D01*
X82070000Y-37567500D01*
X82070000Y-55137499D01*
G37*
G04 #@! TD.AperFunction*
G04 #@! TA.AperFunction,Conductor*
G36*
X54070677Y-76047185D02*
G01*
X54091319Y-76063819D01*
X54218681Y-76191181D01*
X54252166Y-76252504D01*
X54255000Y-76278862D01*
X54255000Y-97351138D01*
X54235315Y-97418177D01*
X54218681Y-97438819D01*
X54091319Y-97566181D01*
X54029996Y-97599666D01*
X54003638Y-97602500D01*
X48431362Y-97602500D01*
X48364323Y-97582815D01*
X48343681Y-97566181D01*
X48216319Y-97438819D01*
X48182834Y-97377496D01*
X48180000Y-97351138D01*
X48180000Y-76278862D01*
X48199685Y-76211823D01*
X48216319Y-76191181D01*
X48343681Y-76063819D01*
X48405004Y-76030334D01*
X48431362Y-76027500D01*
X54003638Y-76027500D01*
X54070677Y-76047185D01*
G37*
G04 #@! TD.AperFunction*
G04 #@! TA.AperFunction,Conductor*
G36*
X87191235Y-15526080D02*
G01*
X87236990Y-15578884D01*
X87248196Y-15630438D01*
X87237507Y-46557500D01*
X82070000Y-46557500D01*
X82070000Y-37567500D01*
X71145000Y-37567500D01*
X71145000Y-34638627D01*
X82249500Y-34638627D01*
X82276123Y-34840839D01*
X82283730Y-34898616D01*
X82351602Y-35151918D01*
X82351605Y-35151928D01*
X82451953Y-35394190D01*
X82451958Y-35394200D01*
X82583075Y-35621303D01*
X82742718Y-35829351D01*
X82742726Y-35829360D01*
X82928140Y-36014774D01*
X82928148Y-36014781D01*
X83136196Y-36174424D01*
X83363299Y-36305541D01*
X83363309Y-36305546D01*
X83605571Y-36405894D01*
X83605581Y-36405898D01*
X83858884Y-36473770D01*
X84118880Y-36508000D01*
X84118887Y-36508000D01*
X84381113Y-36508000D01*
X84381120Y-36508000D01*
X84641116Y-36473770D01*
X84894419Y-36405898D01*
X85136697Y-36305543D01*
X85363803Y-36174424D01*
X85571851Y-36014782D01*
X85571855Y-36014777D01*
X85571860Y-36014774D01*
X85757274Y-35829360D01*
X85757277Y-35829355D01*
X85757282Y-35829351D01*
X85916924Y-35621303D01*
X86048043Y-35394197D01*
X86148398Y-35151919D01*
X86216270Y-34898616D01*
X86250500Y-34638620D01*
X86250500Y-34376380D01*
X86216270Y-34116384D01*
X86148398Y-33863081D01*
X86148394Y-33863071D01*
X86048046Y-33620809D01*
X86048041Y-33620799D01*
X85916924Y-33393696D01*
X85757281Y-33185648D01*
X85757274Y-33185640D01*
X85571860Y-33000226D01*
X85571851Y-33000218D01*
X85363803Y-32840575D01*
X85136700Y-32709458D01*
X85136690Y-32709453D01*
X84894428Y-32609105D01*
X84894421Y-32609103D01*
X84894419Y-32609102D01*
X84641116Y-32541230D01*
X84583339Y-32533623D01*
X84381127Y-32507000D01*
X84381120Y-32507000D01*
X84118880Y-32507000D01*
X84118872Y-32507000D01*
X83887772Y-32537426D01*
X83858884Y-32541230D01*
X83605581Y-32609102D01*
X83605571Y-32609105D01*
X83363309Y-32709453D01*
X83363299Y-32709458D01*
X83136196Y-32840575D01*
X82928148Y-33000218D01*
X82742718Y-33185648D01*
X82583075Y-33393696D01*
X82451958Y-33620799D01*
X82451953Y-33620809D01*
X82351605Y-33863071D01*
X82351602Y-33863081D01*
X82283730Y-34116385D01*
X82249500Y-34376372D01*
X82249500Y-34638627D01*
X71145000Y-34638627D01*
X71145000Y-20888627D01*
X82199500Y-20888627D01*
X82226123Y-21090839D01*
X82233730Y-21148616D01*
X82301602Y-21401918D01*
X82301605Y-21401928D01*
X82401953Y-21644190D01*
X82401958Y-21644200D01*
X82533075Y-21871303D01*
X82692718Y-22079351D01*
X82692726Y-22079360D01*
X82878140Y-22264774D01*
X82878148Y-22264781D01*
X83086196Y-22424424D01*
X83313299Y-22555541D01*
X83313309Y-22555546D01*
X83555571Y-22655894D01*
X83555581Y-22655898D01*
X83808884Y-22723770D01*
X84068880Y-22758000D01*
X84068887Y-22758000D01*
X84331113Y-22758000D01*
X84331120Y-22758000D01*
X84591116Y-22723770D01*
X84844419Y-22655898D01*
X85086697Y-22555543D01*
X85313803Y-22424424D01*
X85521851Y-22264782D01*
X85521855Y-22264777D01*
X85521860Y-22264774D01*
X85707274Y-22079360D01*
X85707277Y-22079355D01*
X85707282Y-22079351D01*
X85866924Y-21871303D01*
X85998043Y-21644197D01*
X86098398Y-21401919D01*
X86166270Y-21148616D01*
X86200500Y-20888620D01*
X86200500Y-20626380D01*
X86166270Y-20366384D01*
X86098398Y-20113081D01*
X86098394Y-20113071D01*
X85998046Y-19870809D01*
X85998041Y-19870799D01*
X85866924Y-19643696D01*
X85707281Y-19435648D01*
X85707274Y-19435640D01*
X85521860Y-19250226D01*
X85521851Y-19250218D01*
X85313803Y-19090575D01*
X85086700Y-18959458D01*
X85086690Y-18959453D01*
X84844428Y-18859105D01*
X84844421Y-18859103D01*
X84844419Y-18859102D01*
X84591116Y-18791230D01*
X84533339Y-18783623D01*
X84331127Y-18757000D01*
X84331120Y-18757000D01*
X84068880Y-18757000D01*
X84068872Y-18757000D01*
X83837772Y-18787426D01*
X83808884Y-18791230D01*
X83555581Y-18859102D01*
X83555571Y-18859105D01*
X83313309Y-18959453D01*
X83313299Y-18959458D01*
X83086196Y-19090575D01*
X82878148Y-19250218D01*
X82692718Y-19435648D01*
X82533075Y-19643696D01*
X82401958Y-19870799D01*
X82401953Y-19870809D01*
X82301605Y-20113071D01*
X82301602Y-20113081D01*
X82233730Y-20366385D01*
X82199500Y-20626372D01*
X82199500Y-20888627D01*
X71145000Y-20888627D01*
X71145000Y-15630395D01*
X71164685Y-15563356D01*
X71217489Y-15517601D01*
X71269000Y-15506395D01*
X87124196Y-15506395D01*
X87191235Y-15526080D01*
G37*
G04 #@! TD.AperFunction*
G04 #@! TA.AperFunction,Conductor*
G36*
X62070677Y-62272185D02*
G01*
X62091319Y-62288819D01*
X62218681Y-62416181D01*
X62252166Y-62477504D01*
X62255000Y-62503862D01*
X62255000Y-81076138D01*
X62235315Y-81143177D01*
X62218681Y-81163819D01*
X62091319Y-81291181D01*
X62029996Y-81324666D01*
X62003638Y-81327500D01*
X54584500Y-81327500D01*
X54517461Y-81307815D01*
X54471706Y-81255011D01*
X54460500Y-81203500D01*
X54460500Y-76278861D01*
X54459321Y-76256881D01*
X54456488Y-76230534D01*
X54456487Y-76230532D01*
X54453491Y-76220964D01*
X54432529Y-76154018D01*
X54399044Y-76092695D01*
X54399039Y-76092688D01*
X54364001Y-76045884D01*
X54363998Y-76045881D01*
X54363991Y-76045871D01*
X54236629Y-75918509D01*
X54236628Y-75918508D01*
X54236624Y-75918504D01*
X54220283Y-75903825D01*
X54220269Y-75903813D01*
X54199620Y-75887172D01*
X54128575Y-75850009D01*
X54061543Y-75830326D01*
X54060894Y-75830232D01*
X54003638Y-75822000D01*
X48431362Y-75822000D01*
X48431361Y-75822000D01*
X48409381Y-75823178D01*
X48383034Y-75826011D01*
X48383032Y-75826012D01*
X48306521Y-75849970D01*
X48306516Y-75849971D01*
X48245188Y-75883460D01*
X48198384Y-75918498D01*
X48198370Y-75918510D01*
X48071004Y-76045875D01*
X48056325Y-76062216D01*
X48056313Y-76062230D01*
X48039672Y-76082879D01*
X48002509Y-76153924D01*
X47982826Y-76220956D01*
X47982825Y-76220964D01*
X47974501Y-76278861D01*
X47974500Y-76278865D01*
X47974500Y-81203500D01*
X47954815Y-81270539D01*
X47902011Y-81316294D01*
X47850500Y-81327500D01*
X41481362Y-81327500D01*
X41414323Y-81307815D01*
X41393681Y-81291181D01*
X41266319Y-81163819D01*
X41232834Y-81102496D01*
X41230000Y-81076138D01*
X41230000Y-62503862D01*
X41249685Y-62436823D01*
X41266319Y-62416181D01*
X41393681Y-62288819D01*
X41455004Y-62255334D01*
X41481362Y-62252500D01*
X62003638Y-62252500D01*
X62070677Y-62272185D01*
G37*
G04 #@! TD.AperFunction*
G04 #@! TA.AperFunction,Conductor*
G36*
X70882539Y-27527185D02*
G01*
X70928294Y-27579989D01*
X70939500Y-27631500D01*
X70939500Y-33028000D01*
X70919815Y-33095039D01*
X70867011Y-33140794D01*
X70815500Y-33152000D01*
X68899375Y-33152000D01*
X68832336Y-33132315D01*
X68786581Y-33079511D01*
X68776637Y-33010353D01*
X68777758Y-33003809D01*
X68790499Y-32939752D01*
X68790500Y-32939750D01*
X68790500Y-30995249D01*
X68790499Y-30995247D01*
X68778868Y-30936770D01*
X68778867Y-30936769D01*
X68734552Y-30870447D01*
X68668230Y-30826132D01*
X68668229Y-30826131D01*
X68609752Y-30814500D01*
X68609748Y-30814500D01*
X66570252Y-30814500D01*
X66570247Y-30814500D01*
X66511770Y-30826131D01*
X66511769Y-30826132D01*
X66445447Y-30870447D01*
X66401132Y-30936769D01*
X66401131Y-30936770D01*
X66389500Y-30995247D01*
X66389500Y-32939752D01*
X66401131Y-32998229D01*
X66401132Y-32998230D01*
X66451389Y-33073444D01*
X66472267Y-33140121D01*
X66453783Y-33207501D01*
X66422599Y-33241601D01*
X66413378Y-33248503D01*
X66413370Y-33248510D01*
X66286004Y-33375875D01*
X66271325Y-33392216D01*
X66271313Y-33392230D01*
X66254672Y-33412879D01*
X66217509Y-33483924D01*
X66197826Y-33550956D01*
X66189500Y-33608865D01*
X66189500Y-35406138D01*
X66190678Y-35428118D01*
X66193511Y-35454465D01*
X66193512Y-35454467D01*
X66217470Y-35530978D01*
X66217471Y-35530983D01*
X66231872Y-35557355D01*
X66250956Y-35592305D01*
X66250958Y-35592308D01*
X66250960Y-35592311D01*
X66285998Y-35639115D01*
X66286002Y-35639119D01*
X66286009Y-35639129D01*
X66354565Y-35707685D01*
X66413375Y-35766495D01*
X66429716Y-35781174D01*
X66429730Y-35781186D01*
X66429738Y-35781193D01*
X66438136Y-35787960D01*
X66450379Y-35797827D01*
X66521424Y-35834990D01*
X66588456Y-35854673D01*
X66588458Y-35854673D01*
X66588464Y-35854675D01*
X66646362Y-35863000D01*
X70815500Y-35863000D01*
X70882539Y-35882685D01*
X70928294Y-35935489D01*
X70939500Y-35987000D01*
X70939500Y-37498981D01*
X70934515Y-37533788D01*
X70922830Y-37573740D01*
X70914567Y-37631652D01*
X70916703Y-39608366D01*
X70897091Y-39675427D01*
X70844336Y-39721239D01*
X70792703Y-39732500D01*
X57574500Y-39732500D01*
X57507461Y-39712815D01*
X57461706Y-39660011D01*
X57450500Y-39608500D01*
X57450500Y-35812000D01*
X57470185Y-35744961D01*
X57522989Y-35699206D01*
X57574500Y-35688000D01*
X59690625Y-35688000D01*
X59757664Y-35707685D01*
X59803419Y-35760489D01*
X59813363Y-35829647D01*
X59812242Y-35836191D01*
X59799500Y-35900247D01*
X59799500Y-37844752D01*
X59811131Y-37903229D01*
X59811132Y-37903230D01*
X59855447Y-37969552D01*
X59921769Y-38013867D01*
X59921770Y-38013868D01*
X59980247Y-38025499D01*
X59980250Y-38025500D01*
X59980252Y-38025500D01*
X62019750Y-38025500D01*
X62019751Y-38025499D01*
X62034568Y-38022552D01*
X62078229Y-38013868D01*
X62078229Y-38013867D01*
X62078231Y-38013867D01*
X62144552Y-37969552D01*
X62188867Y-37903231D01*
X62188867Y-37903229D01*
X62188868Y-37903229D01*
X62200499Y-37844752D01*
X62200500Y-37844750D01*
X62200500Y-35900249D01*
X62200499Y-35900247D01*
X62188868Y-35841770D01*
X62188867Y-35841769D01*
X62138610Y-35766555D01*
X62117732Y-35699878D01*
X62136216Y-35632498D01*
X62167402Y-35598397D01*
X62176629Y-35591491D01*
X62303991Y-35464129D01*
X62318693Y-35447762D01*
X62335327Y-35427120D01*
X62372490Y-35356075D01*
X62379593Y-35331885D01*
X62392173Y-35289043D01*
X62392173Y-35289042D01*
X62392175Y-35289036D01*
X62400500Y-35231138D01*
X62400500Y-33433862D01*
X62399322Y-33411893D01*
X62396488Y-33385535D01*
X62372529Y-33309018D01*
X62339044Y-33247695D01*
X62334482Y-33241601D01*
X62304001Y-33200884D01*
X62303998Y-33200881D01*
X62303991Y-33200871D01*
X62176629Y-33073509D01*
X62176628Y-33073508D01*
X62176624Y-33073504D01*
X62160283Y-33058825D01*
X62160269Y-33058813D01*
X62139620Y-33042172D01*
X62068575Y-33005009D01*
X62001543Y-32985326D01*
X62000894Y-32985232D01*
X61943638Y-32977000D01*
X61943634Y-32977000D01*
X57574500Y-32977000D01*
X57507461Y-32957315D01*
X57461706Y-32904511D01*
X57450500Y-32853000D01*
X57450500Y-27631500D01*
X57470185Y-27564461D01*
X57522989Y-27518706D01*
X57574500Y-27507500D01*
X70815500Y-27507500D01*
X70882539Y-27527185D01*
G37*
G04 #@! TD.AperFunction*
G04 #@! TA.AperFunction,Conductor*
G36*
X73895000Y-21907500D02*
G01*
X66596362Y-21907500D01*
X66529323Y-21887815D01*
X66508681Y-21871181D01*
X66381319Y-21743819D01*
X66347834Y-21682496D01*
X66345000Y-21656138D01*
X66345000Y-19858862D01*
X66364685Y-19791823D01*
X66381319Y-19771181D01*
X66508681Y-19643819D01*
X66570004Y-19610334D01*
X66596362Y-19607500D01*
X70945000Y-19607500D01*
X73895000Y-19607500D01*
X73895000Y-21907500D01*
G37*
G04 #@! TD.AperFunction*
G04 #@! TA.AperFunction,Conductor*
G36*
X62010677Y-33202185D02*
G01*
X62031319Y-33218819D01*
X62158681Y-33346181D01*
X62192166Y-33407504D01*
X62195000Y-33433862D01*
X62195000Y-35231138D01*
X62175315Y-35298177D01*
X62158681Y-35318819D01*
X62031319Y-35446181D01*
X61969996Y-35479666D01*
X61943638Y-35482500D01*
X57245000Y-35482500D01*
X57245000Y-33182500D01*
X57445000Y-33182500D01*
X61943638Y-33182500D01*
X62010677Y-33202185D01*
G37*
G04 #@! TD.AperFunction*
G04 #@! TA.AperFunction,Conductor*
G36*
X87234672Y-54758043D02*
G01*
X87214964Y-54825076D01*
X87162144Y-54870812D01*
X87110672Y-54882000D01*
X82399492Y-54882000D01*
X82355813Y-54886697D01*
X82304325Y-54897897D01*
X82294127Y-54900390D01*
X82294124Y-54900391D01*
X82224486Y-54937500D01*
X82070000Y-54937500D01*
X82070000Y-46557500D01*
X87237506Y-46557500D01*
X87234672Y-54758043D01*
G37*
G04 #@! TD.AperFunction*
G04 #@! TA.AperFunction,Conductor*
G36*
X47790000Y-98497099D02*
G01*
X41334503Y-98497099D01*
X41267464Y-98477414D01*
X41221709Y-98424610D01*
X41210503Y-98373054D01*
X41216535Y-81621455D01*
X41236244Y-81554423D01*
X41289064Y-81508687D01*
X41340535Y-81497500D01*
X47790000Y-81497500D01*
X47790000Y-98497099D01*
G37*
G04 #@! TD.AperFunction*
G04 #@! TA.AperFunction,Conductor*
G36*
X70882539Y-15526080D02*
G01*
X70928294Y-15578884D01*
X70939500Y-15630395D01*
X70939500Y-19278000D01*
X70919815Y-19345039D01*
X70867011Y-19390794D01*
X70815500Y-19402000D01*
X68849375Y-19402000D01*
X68782336Y-19382315D01*
X68736581Y-19329511D01*
X68726637Y-19260353D01*
X68727758Y-19253809D01*
X68740499Y-19189752D01*
X68740500Y-19189750D01*
X68740500Y-17245249D01*
X68740499Y-17245247D01*
X68728868Y-17186770D01*
X68728867Y-17186769D01*
X68684552Y-17120447D01*
X68618230Y-17076132D01*
X68618229Y-17076131D01*
X68559752Y-17064500D01*
X68559748Y-17064500D01*
X66520252Y-17064500D01*
X66520247Y-17064500D01*
X66461770Y-17076131D01*
X66461769Y-17076132D01*
X66395447Y-17120447D01*
X66351132Y-17186769D01*
X66351131Y-17186770D01*
X66339500Y-17245247D01*
X66339500Y-19189752D01*
X66351131Y-19248229D01*
X66351132Y-19248230D01*
X66401389Y-19323444D01*
X66422267Y-19390121D01*
X66403783Y-19457501D01*
X66372599Y-19491601D01*
X66363378Y-19498503D01*
X66363370Y-19498510D01*
X66236004Y-19625875D01*
X66221325Y-19642216D01*
X66221313Y-19642230D01*
X66204672Y-19662879D01*
X66167509Y-19733924D01*
X66147826Y-19800956D01*
X66139500Y-19858865D01*
X66139500Y-21656138D01*
X66140678Y-21678118D01*
X66143511Y-21704465D01*
X66143512Y-21704467D01*
X66167470Y-21780978D01*
X66167471Y-21780983D01*
X66173209Y-21791491D01*
X66200956Y-21842305D01*
X66200958Y-21842308D01*
X66200960Y-21842311D01*
X66235998Y-21889115D01*
X66236002Y-21889119D01*
X66236009Y-21889129D01*
X66307369Y-21960489D01*
X66363375Y-22016495D01*
X66379716Y-22031174D01*
X66379730Y-22031186D01*
X66379738Y-22031193D01*
X66385940Y-22036191D01*
X66400379Y-22047827D01*
X66471424Y-22084990D01*
X66538456Y-22104673D01*
X66538458Y-22104673D01*
X66538464Y-22104675D01*
X66596362Y-22113000D01*
X70815500Y-22113000D01*
X70882539Y-22132685D01*
X70928294Y-22185489D01*
X70939500Y-22237000D01*
X70939500Y-27133500D01*
X70919815Y-27200539D01*
X70867011Y-27246294D01*
X70815500Y-27257500D01*
X57574500Y-27257500D01*
X57507461Y-27237815D01*
X57461706Y-27185011D01*
X57450500Y-27133500D01*
X57450500Y-22012000D01*
X57470185Y-21944961D01*
X57522989Y-21899206D01*
X57574500Y-21888000D01*
X59715625Y-21888000D01*
X59782664Y-21907685D01*
X59828419Y-21960489D01*
X59838363Y-22029647D01*
X59837242Y-22036191D01*
X59824500Y-22100247D01*
X59824500Y-24044752D01*
X59836131Y-24103229D01*
X59836132Y-24103230D01*
X59880447Y-24169552D01*
X59946769Y-24213867D01*
X59946770Y-24213868D01*
X60005247Y-24225499D01*
X60005250Y-24225500D01*
X60005252Y-24225500D01*
X62044750Y-24225500D01*
X62044751Y-24225499D01*
X62059568Y-24222552D01*
X62103229Y-24213868D01*
X62103229Y-24213867D01*
X62103231Y-24213867D01*
X62169552Y-24169552D01*
X62213867Y-24103231D01*
X62213867Y-24103229D01*
X62213868Y-24103229D01*
X62225499Y-24044752D01*
X62225500Y-24044750D01*
X62225500Y-22100249D01*
X62225499Y-22100247D01*
X62213868Y-22041770D01*
X62213867Y-22041769D01*
X62163610Y-21966555D01*
X62142732Y-21899878D01*
X62161216Y-21832498D01*
X62192402Y-21798397D01*
X62201629Y-21791491D01*
X62328991Y-21664129D01*
X62343693Y-21647762D01*
X62360327Y-21627120D01*
X62397490Y-21556075D01*
X62417175Y-21489036D01*
X62425500Y-21431138D01*
X62425500Y-19633862D01*
X62424322Y-19611893D01*
X62421488Y-19585535D01*
X62397529Y-19509018D01*
X62364044Y-19447695D01*
X62328991Y-19400871D01*
X62201629Y-19273509D01*
X62201628Y-19273508D01*
X62201624Y-19273504D01*
X62185283Y-19258825D01*
X62185269Y-19258813D01*
X62164620Y-19242172D01*
X62093575Y-19205009D01*
X62026543Y-19185326D01*
X62025894Y-19185232D01*
X61968638Y-19177000D01*
X61968634Y-19177000D01*
X57574500Y-19177000D01*
X57507461Y-19157315D01*
X57461706Y-19104511D01*
X57450500Y-19053000D01*
X57450500Y-15630395D01*
X57470185Y-15563356D01*
X57522989Y-15517601D01*
X57574500Y-15506395D01*
X70815500Y-15506395D01*
X70882539Y-15526080D01*
G37*
G04 #@! TD.AperFunction*
G04 #@! TA.AperFunction,Conductor*
G36*
X71145000Y-35657500D02*
G01*
X66646362Y-35657500D01*
X66579323Y-35637815D01*
X66558681Y-35621181D01*
X66431319Y-35493819D01*
X66397834Y-35432496D01*
X66395000Y-35406138D01*
X66395000Y-33608862D01*
X66414685Y-33541823D01*
X66431319Y-33521181D01*
X66558681Y-33393819D01*
X66620004Y-33360334D01*
X66646362Y-33357500D01*
X70945000Y-33357500D01*
X71145000Y-33357500D01*
X71145000Y-35657500D01*
G37*
G04 #@! TD.AperFunction*
G04 #@! TA.AperFunction,Conductor*
G36*
X57188039Y-15526080D02*
G01*
X57233794Y-15578884D01*
X57245000Y-15630395D01*
X57245000Y-35682499D01*
X57245000Y-46558500D01*
X57225315Y-46625539D01*
X57172511Y-46671294D01*
X57121000Y-46682500D01*
X41353163Y-46682500D01*
X41286124Y-46662815D01*
X41240369Y-46610011D01*
X41229163Y-46558455D01*
X41233518Y-34463627D01*
X42339500Y-34463627D01*
X42366123Y-34665839D01*
X42373730Y-34723616D01*
X42441602Y-34976918D01*
X42441605Y-34976928D01*
X42541953Y-35219190D01*
X42541958Y-35219200D01*
X42673075Y-35446303D01*
X42832718Y-35654351D01*
X42832726Y-35654360D01*
X43018140Y-35839774D01*
X43018148Y-35839781D01*
X43226196Y-35999424D01*
X43453299Y-36130541D01*
X43453309Y-36130546D01*
X43695571Y-36230894D01*
X43695581Y-36230898D01*
X43948884Y-36298770D01*
X44208880Y-36333000D01*
X44208887Y-36333000D01*
X44471113Y-36333000D01*
X44471120Y-36333000D01*
X44731116Y-36298770D01*
X44984419Y-36230898D01*
X45226697Y-36130543D01*
X45453803Y-35999424D01*
X45661851Y-35839782D01*
X45661855Y-35839777D01*
X45661860Y-35839774D01*
X45847274Y-35654360D01*
X45847277Y-35654355D01*
X45847282Y-35654351D01*
X46006924Y-35446303D01*
X46138043Y-35219197D01*
X46238398Y-34976919D01*
X46306270Y-34723616D01*
X46340500Y-34463620D01*
X46340500Y-34201380D01*
X46306270Y-33941384D01*
X46238398Y-33688081D01*
X46238394Y-33688071D01*
X46138046Y-33445809D01*
X46138041Y-33445799D01*
X46006924Y-33218696D01*
X45847281Y-33010648D01*
X45847274Y-33010640D01*
X45661860Y-32825226D01*
X45661851Y-32825218D01*
X45453803Y-32665575D01*
X45226700Y-32534458D01*
X45226690Y-32534453D01*
X44984428Y-32434105D01*
X44984421Y-32434103D01*
X44984419Y-32434102D01*
X44731116Y-32366230D01*
X44673339Y-32358623D01*
X44471127Y-32332000D01*
X44471120Y-32332000D01*
X44208880Y-32332000D01*
X44208872Y-32332000D01*
X43977772Y-32362426D01*
X43948884Y-32366230D01*
X43695581Y-32434102D01*
X43695571Y-32434105D01*
X43453309Y-32534453D01*
X43453299Y-32534458D01*
X43226196Y-32665575D01*
X43018148Y-32825218D01*
X42832718Y-33010648D01*
X42673075Y-33218696D01*
X42541958Y-33445799D01*
X42541953Y-33445809D01*
X42441605Y-33688071D01*
X42441602Y-33688081D01*
X42373730Y-33941385D01*
X42339500Y-34201372D01*
X42339500Y-34463627D01*
X41233518Y-34463627D01*
X41236235Y-26916819D01*
X41238487Y-20663627D01*
X42364500Y-20663627D01*
X42391123Y-20865839D01*
X42398730Y-20923616D01*
X42466602Y-21176918D01*
X42466605Y-21176928D01*
X42566953Y-21419190D01*
X42566958Y-21419200D01*
X42698075Y-21646303D01*
X42857718Y-21854351D01*
X42857726Y-21854360D01*
X43043140Y-22039774D01*
X43043148Y-22039781D01*
X43251196Y-22199424D01*
X43478299Y-22330541D01*
X43478309Y-22330546D01*
X43720571Y-22430894D01*
X43720581Y-22430898D01*
X43973884Y-22498770D01*
X44233880Y-22533000D01*
X44233887Y-22533000D01*
X44496113Y-22533000D01*
X44496120Y-22533000D01*
X44756116Y-22498770D01*
X45009419Y-22430898D01*
X45251697Y-22330543D01*
X45478803Y-22199424D01*
X45686851Y-22039782D01*
X45686855Y-22039777D01*
X45686860Y-22039774D01*
X45872274Y-21854360D01*
X45872277Y-21854355D01*
X45872282Y-21854351D01*
X46031924Y-21646303D01*
X46163043Y-21419197D01*
X46263398Y-21176919D01*
X46331270Y-20923616D01*
X46365500Y-20663620D01*
X46365500Y-20401380D01*
X46331270Y-20141384D01*
X46263398Y-19888081D01*
X46263394Y-19888071D01*
X46163046Y-19645809D01*
X46163041Y-19645799D01*
X46031924Y-19418696D01*
X45872281Y-19210648D01*
X45872274Y-19210640D01*
X45686860Y-19025226D01*
X45686851Y-19025218D01*
X45478803Y-18865575D01*
X45251700Y-18734458D01*
X45251690Y-18734453D01*
X45009428Y-18634105D01*
X45009421Y-18634103D01*
X45009419Y-18634102D01*
X44756116Y-18566230D01*
X44698339Y-18558623D01*
X44496127Y-18532000D01*
X44496120Y-18532000D01*
X44233880Y-18532000D01*
X44233872Y-18532000D01*
X44002772Y-18562426D01*
X43973884Y-18566230D01*
X43720581Y-18634102D01*
X43720571Y-18634105D01*
X43478309Y-18734453D01*
X43478299Y-18734458D01*
X43251196Y-18865575D01*
X43043148Y-19025218D01*
X42857718Y-19210648D01*
X42698075Y-19418696D01*
X42566958Y-19645799D01*
X42566953Y-19645809D01*
X42466605Y-19888071D01*
X42466602Y-19888081D01*
X42398730Y-20141385D01*
X42364500Y-20401372D01*
X42364500Y-20663627D01*
X41238487Y-20663627D01*
X41240300Y-15630348D01*
X41260009Y-15563318D01*
X41312829Y-15517582D01*
X41364300Y-15506395D01*
X57121000Y-15506395D01*
X57188039Y-15526080D01*
G37*
G04 #@! TD.AperFunction*
G04 #@! TA.AperFunction,Conductor*
G36*
X62035677Y-19402185D02*
G01*
X62056319Y-19418819D01*
X62183681Y-19546181D01*
X62217166Y-19607504D01*
X62220000Y-19633862D01*
X62220000Y-21431138D01*
X62200315Y-21498177D01*
X62183681Y-21518819D01*
X62056319Y-21646181D01*
X61994996Y-21679666D01*
X61968638Y-21682500D01*
X57245000Y-21682500D01*
X57245000Y-19382500D01*
X57445000Y-19382500D01*
X61968638Y-19382500D01*
X62035677Y-19402185D01*
G37*
G04 #@! TD.AperFunction*
M02*
